<svg xmlns="http://www.w3.org/2000/svg" xmlns:xlink="http://www.w3.org/1999/xlink" width="700" zoomAndPan="magnify" viewBox="0 0 525 525.000007" height="700" preserveAspectRatio="xMidYMid meet" version="1.0"><defs><g/><clipPath id="771ae67dcd"><path d="M 65.359375 101.578125 L 459.859375 101.578125 L 459.859375 422.714844 L 65.359375 422.714844 Z M 65.359375 101.578125 " clip-rule="nonzero"/></clipPath><clipPath id="4cbbc5259b"><path d="M 204.371094 124.644531 L 320.398438 124.644531 L 320.398438 240.671875 L 204.371094 240.671875 Z M 204.371094 124.644531 " clip-rule="nonzero"/></clipPath></defs><g clip-path="url(#771ae67dcd)"><path fill="#ffffff" d="M 446.480469 332.394531 C 444.09375 332.394531 441.609375 332.394531 439.21875 332.394531 C 417.148438 332.394531 394.984375 332.394531 372.914062 332.394531 C 347.691406 332.394531 322.464844 332.394531 297.148438 332.394531 C 270.96875 332.394531 244.789062 332.394531 218.515625 332.394531 C 193.578125 332.394531 168.546875 332.394531 143.609375 332.394531 C 121.921875 332.394531 100.328125 332.394531 78.640625 332.394531 C 76.632812 332.394531 76.632812 329.242188 78.640625 329.242188 C 81.027344 329.242188 83.511719 329.242188 85.902344 329.242188 C 107.972656 329.242188 130.136719 329.242188 152.207031 329.242188 C 177.429688 329.242188 202.65625 329.242188 227.972656 329.242188 C 254.152344 329.242188 280.332031 329.242188 306.605469 329.242188 C 331.542969 329.242188 356.574219 329.242188 381.511719 329.242188 C 403.199219 329.242188 424.792969 329.242188 446.480469 329.242188 C 448.488281 329.242188 448.488281 332.394531 446.480469 332.394531 Z M 407.691406 364.605469 C 384.761719 364.605469 361.832031 364.605469 338.996094 364.605469 C 321.894531 364.605469 304.886719 364.605469 287.785156 364.605469 C 272.785156 364.605469 257.878906 364.605469 242.878906 364.605469 C 226.253906 364.605469 209.628906 364.605469 193.101562 364.605469 C 171.125 364.605469 149.054688 364.605469 127.078125 364.605469 C 123.832031 364.605469 120.679688 364.605469 117.429688 364.605469 C 115.421875 364.605469 115.421875 367.757812 117.429688 367.757812 C 140.359375 367.757812 163.289062 367.757812 186.125 367.757812 C 203.226562 367.757812 220.234375 367.757812 237.335938 367.757812 C 252.335938 367.757812 267.242188 367.757812 282.242188 367.757812 C 298.867188 367.757812 315.492188 367.757812 332.019531 367.757812 C 353.996094 367.757812 376.066406 367.757812 398.042969 367.757812 C 401.289062 367.757812 404.441406 367.757812 407.691406 367.757812 C 409.699219 367.757812 409.699219 364.605469 407.691406 364.605469 Z M 262.5625 419.5625 C 220.332031 419.5625 180.203125 400.925781 152.78125 369.191406 L 148.671875 369.191406 C 176.667969 402.929688 218.515625 422.714844 262.5625 422.714844 C 306.605469 422.714844 348.453125 402.929688 376.449219 369.191406 L 372.339844 369.191406 C 344.917969 400.925781 304.789062 419.5625 262.5625 419.5625 Z M 227.6875 402.261719 C 231.03125 403.3125 234.375 404.269531 237.816406 404.9375 C 237.910156 404.9375 238.007812 404.84375 238.101562 404.84375 C 242.210938 404.078125 246.03125 402.644531 249.664062 400.636719 C 250.523438 400.160156 251.476562 399.679688 252.527344 400.351562 C 253.386719 400.925781 254.058594 401.785156 254.820312 402.453125 C 256.351562 403.886719 257.878906 405.320312 259.40625 406.753906 C 260.746094 407.230469 260.554688 409.71875 258.738281 409.8125 C 252.433594 410.195312 246.222656 409.71875 240.011719 408.570312 C 229.121094 406.5625 218.609375 402.644531 208.769531 397.675781 C 199.121094 392.894531 190.042969 386.96875 181.636719 380.28125 C 180.203125 379.132812 182.015625 377.125 183.546875 377.792969 L 260.648438 377.792969 C 261.414062 377.792969 261.890625 378.273438 262.082031 378.847656 C 262.371094 379.417969 262.371094 380.089844 261.890625 380.660156 C 252.335938 390.507812 241.0625 399.203125 227.6875 402.261719 Z M 245.265625 406.179688 C 248.421875 406.5625 251.574219 406.753906 254.820312 406.753906 C 254.535156 406.46875 254.25 406.277344 253.960938 405.988281 C 253.386719 405.414062 252.71875 404.84375 252.144531 404.269531 C 251.859375 403.980469 251.574219 403.601562 251.191406 403.3125 C 250.90625 403.503906 250.523438 403.792969 250.332031 403.886719 C 249.851562 404.171875 249.28125 404.460938 248.800781 404.746094 C 247.75 405.226562 246.699219 405.703125 245.648438 406.085938 C 245.457031 406.085938 245.363281 406.179688 245.265625 406.179688 Z M 192.433594 381.042969 L 187.65625 381.042969 C 189.183594 382.191406 190.808594 383.335938 192.433594 384.484375 Z M 201.222656 381.042969 L 195.488281 381.042969 L 195.488281 386.585938 C 196.445312 387.257812 197.398438 387.828125 198.449219 388.5 C 199.40625 389.074219 200.265625 389.644531 201.222656 390.21875 Z M 211.730469 381.042969 L 204.375 381.042969 L 204.375 391.367188 C 204.375 391.558594 204.375 391.652344 204.277344 391.84375 C 206.667969 393.183594 209.152344 394.519531 211.730469 395.761719 Z M 221.574219 381.042969 L 214.882812 381.042969 L 214.882812 397.292969 C 217.082031 398.34375 219.28125 399.203125 221.574219 400.160156 Z M 231.988281 397.769531 C 231.890625 397.578125 231.890625 397.386719 231.890625 397.195312 L 231.890625 381.042969 L 224.820312 381.042969 L 224.820312 399.679688 C 227.210938 399.203125 229.597656 398.628906 231.988281 397.769531 Z M 241.730469 393.085938 C 241.730469 392.894531 241.636719 392.800781 241.636719 392.609375 L 241.636719 380.949219 L 234.949219 380.949219 L 234.949219 396.527344 C 237.335938 395.570312 239.535156 394.425781 241.730469 393.085938 Z M 252.144531 385.535156 C 252.144531 385.441406 252.144531 385.441406 252.144531 385.535156 L 252.144531 381.042969 L 244.789062 381.042969 L 244.789062 391.175781 C 247.371094 389.453125 249.851562 387.542969 252.144531 385.535156 Z M 257.019531 381.042969 L 255.300781 381.042969 L 255.300781 382.667969 C 255.871094 382.09375 256.445312 381.617188 257.019531 381.042969 Z M 287.304688 404.9375 C 290.746094 404.269531 294.089844 403.3125 297.433594 402.261719 C 284.058594 399.203125 272.785156 390.507812 263.324219 380.757812 C 262.75 380.183594 262.75 379.515625 263.132812 378.941406 C 263.324219 378.367188 263.800781 377.890625 264.566406 377.890625 L 341.671875 377.890625 C 343.199219 377.222656 345.015625 379.132812 343.582031 380.375 C 335.171875 387.160156 326.097656 392.992188 316.445312 397.769531 C 306.605469 402.644531 296.097656 406.660156 285.203125 408.664062 C 278.992188 409.8125 272.785156 410.289062 266.476562 409.90625 C 264.664062 409.8125 264.472656 407.328125 265.808594 406.847656 C 267.335938 405.414062 268.867188 403.980469 270.394531 402.546875 C 271.160156 401.878906 271.828125 401.019531 272.6875 400.445312 C 273.644531 399.871094 274.597656 400.253906 275.554688 400.734375 C 279.089844 402.835938 283.007812 404.269531 287.117188 404.9375 C 287.117188 404.9375 287.210938 404.9375 287.304688 404.9375 Z M 279.949219 406.179688 C 279.855469 406.179688 279.757812 406.085938 279.566406 406.085938 C 278.515625 405.703125 277.464844 405.226562 276.414062 404.746094 C 275.9375 404.460938 275.363281 404.171875 274.886719 403.886719 C 274.695312 403.792969 274.3125 403.503906 274.027344 403.3125 C 273.738281 403.601562 273.355469 403.980469 273.070312 404.269531 C 272.496094 404.84375 271.828125 405.414062 271.253906 405.988281 C 270.96875 406.277344 270.683594 406.46875 270.394531 406.753906 C 273.546875 406.753906 276.796875 406.5625 279.949219 406.179688 Z M 332.785156 384.390625 C 334.410156 383.242188 335.9375 382.191406 337.5625 380.949219 L 332.785156 380.949219 Z M 323.898438 390.125 C 324.855469 389.550781 325.808594 388.976562 326.671875 388.402344 C 327.625 387.828125 328.582031 387.160156 329.632812 386.492188 L 329.632812 380.949219 L 323.898438 380.949219 Z M 313.390625 395.761719 C 315.875 394.519531 318.359375 393.183594 320.84375 391.84375 C 320.84375 391.75 320.746094 391.558594 320.746094 391.367188 L 320.746094 381.042969 L 313.390625 381.042969 Z M 303.546875 400.0625 C 305.839844 399.203125 308.039062 398.246094 310.238281 397.195312 L 310.238281 380.949219 L 303.546875 380.949219 Z M 269.820312 381.042969 L 268.101562 381.042969 C 268.675781 381.617188 269.25 382.191406 269.820312 382.667969 Z M 280.332031 381.042969 L 272.976562 381.042969 L 272.976562 385.441406 C 272.976562 385.441406 272.976562 385.441406 272.976562 385.535156 C 275.363281 387.542969 277.753906 389.453125 280.332031 391.269531 Z M 290.171875 381.042969 L 283.484375 381.042969 L 283.484375 392.703125 C 283.484375 392.894531 283.484375 393.085938 283.390625 393.183594 C 285.585938 394.519531 287.785156 395.667969 290.171875 396.621094 Z M 300.394531 399.679688 L 300.394531 381.042969 L 293.324219 381.042969 L 293.324219 397.195312 C 293.324219 397.386719 293.324219 397.578125 293.230469 397.769531 C 295.523438 398.628906 298.007812 399.203125 300.394531 399.679688 Z M 211.730469 182.914062 C 211.730469 154.8125 234.566406 131.972656 262.65625 131.972656 C 290.746094 131.972656 313.582031 154.8125 313.582031 182.914062 C 313.582031 211.011719 290.746094 233.855469 262.65625 233.855469 C 234.566406 233.855469 211.730469 211.011719 211.730469 182.914062 Z M 212.78125 182.914062 C 212.78125 210.441406 235.140625 232.804688 262.65625 232.804688 C 290.171875 232.804688 312.53125 210.441406 312.53125 182.914062 C 312.53125 155.386719 290.171875 133.023438 262.65625 133.023438 C 235.140625 133.023438 212.78125 155.386719 212.78125 182.914062 Z M 459.859375 248.097656 L 459.859375 251.25 L 65.359375 251.25 L 65.359375 248.097656 L 81.027344 248.097656 C 85.039062 241.789062 89.339844 235.671875 93.925781 229.746094 C 93.925781 229.652344 94.023438 229.652344 94.023438 229.554688 C 94.214844 229.269531 94.5 229.078125 94.785156 228.980469 C 94.976562 228.886719 95.265625 228.886719 95.550781 228.886719 L 140.167969 228.886719 C 134.628906 222.292969 130.519531 214.550781 128.320312 206.234375 C 128.035156 205.277344 128.609375 204.609375 129.277344 204.417969 C 129.46875 204.324219 129.753906 204.226562 129.945312 204.226562 L 132.238281 204.226562 C 131.855469 203.941406 131.476562 203.652344 131.1875 203.367188 C 129.5625 201.648438 128.992188 199.257812 129.085938 196.964844 C 129.375 192.855469 131.667969 189.03125 135.105469 186.832031 C 138.066406 184.921875 141.601562 184.441406 144.945312 185.113281 C 144.660156 183.296875 144.566406 181.382812 144.753906 179.472656 C 145.425781 174.3125 148.195312 169.628906 152.6875 166.953125 C 156.984375 164.46875 162.429688 163.796875 167.015625 165.902344 C 172.082031 168.195312 174.183594 174.695312 172.652344 179.855469 C 171.984375 182.246094 170.359375 184.441406 168.164062 185.589844 C 165.964844 186.738281 162.910156 186.832031 160.996094 185.015625 C 159.375 183.390625 159.085938 180.523438 160.808594 178.898438 C 162.335938 177.5625 164.914062 177.5625 166.253906 179.1875 C 167.207031 180.332031 167.113281 181.957031 166.253906 183.007812 C 167.015625 182.628906 167.6875 182.148438 168.164062 181.574219 C 170.933594 178.515625 170.359375 172.589844 167.304688 169.820312 C 164.722656 167.527344 160.617188 167.429688 157.464844 168.289062 C 154.117188 169.246094 151.253906 171.347656 149.628906 174.40625 C 145.902344 180.90625 148.101562 188.933594 152.78125 194.382812 C 155.265625 197.25 158.324219 199.832031 161.859375 201.167969 C 165.488281 202.601562 169.5 202.601562 173.324219 201.835938 C 181.15625 200.117188 187.464844 194.765625 193.484375 189.796875 C 192.527344 179.664062 193.195312 168.960938 196.921875 159.496094 C 195.585938 158.445312 194.726562 156.820312 194.726562 155.003906 C 194.726562 151.851562 197.304688 149.269531 200.457031 149.269531 C 203.609375 149.269531 206.191406 151.851562 206.191406 155.003906 C 206.191406 158.160156 203.609375 160.738281 200.457031 160.738281 C 200.265625 160.738281 200.074219 160.738281 199.789062 160.738281 C 199.214844 162.171875 198.738281 163.605469 198.355469 165.039062 C 194.820312 177.753906 195.871094 191.609375 199.121094 204.226562 L 207.8125 204.226562 C 205.234375 197.535156 203.800781 190.367188 203.800781 182.722656 C 203.800781 150.320312 230.171875 123.941406 262.5625 123.941406 C 294.949219 123.941406 321.320312 150.320312 321.320312 182.722656 C 321.320312 190.273438 319.886719 197.535156 317.308594 204.226562 L 326 204.226562 C 329.25 191.609375 330.300781 177.65625 326.765625 165.039062 C 326.382812 163.605469 325.808594 162.171875 325.332031 160.738281 C 325.140625 160.738281 324.949219 160.738281 324.664062 160.738281 C 321.511719 160.738281 318.929688 158.160156 318.929688 155.003906 C 318.929688 151.851562 321.511719 149.269531 324.664062 149.269531 C 327.816406 149.269531 330.394531 151.851562 330.394531 155.003906 C 330.394531 156.820312 329.535156 158.445312 328.199219 159.496094 C 331.925781 168.960938 332.59375 179.664062 331.636719 189.796875 C 337.65625 194.859375 343.964844 200.117188 351.796875 201.835938 C 355.523438 202.699219 359.632812 202.699219 363.261719 201.167969 C 366.796875 199.734375 369.855469 197.15625 372.339844 194.382812 C 377.023438 189.03125 379.125 180.90625 375.492188 174.40625 C 373.773438 171.445312 370.90625 169.246094 367.660156 168.289062 C 364.503906 167.429688 360.398438 167.527344 357.816406 169.820312 C 354.761719 172.496094 354.1875 178.421875 356.957031 181.574219 C 357.433594 182.054688 358.105469 182.628906 358.867188 183.007812 C 358.105469 181.957031 358.007812 180.332031 358.867188 179.1875 C 360.207031 177.5625 362.785156 177.5625 364.3125 178.898438 C 366.035156 180.523438 365.746094 183.390625 364.125 185.015625 C 362.210938 186.929688 359.25 186.832031 356.957031 185.589844 C 354.761719 184.441406 353.136719 182.246094 352.46875 179.855469 C 351.035156 174.695312 353.136719 168.289062 358.105469 165.902344 C 362.691406 163.796875 368.136719 164.46875 372.433594 166.953125 C 376.925781 169.628906 379.695312 174.3125 380.367188 179.472656 C 380.554688 181.382812 380.554688 183.199219 380.175781 185.113281 C 383.519531 184.441406 387.054688 184.921875 390.015625 186.832031 C 393.453125 189.03125 395.746094 192.855469 396.035156 196.964844 C 396.226562 199.257812 395.558594 201.648438 393.933594 203.367188 C 393.644531 203.75 393.265625 204.035156 392.882812 204.226562 L 395.175781 204.226562 C 395.460938 204.226562 395.652344 204.324219 395.84375 204.417969 C 396.511719 204.707031 397.085938 205.375 396.800781 206.234375 C 394.601562 214.550781 390.589844 222.292969 384.953125 228.886719 L 429.570312 228.886719 C 429.855469 228.886719 430.046875 228.886719 430.335938 228.980469 C 430.71875 229.078125 430.90625 229.269531 431.097656 229.554688 C 431.097656 229.652344 431.195312 229.652344 431.195312 229.746094 C 435.683594 235.671875 439.984375 241.789062 444.09375 248.097656 Z M 393.167969 207.476562 L 384.953125 207.476562 C 382.660156 215.410156 378.742188 222.671875 373.488281 228.980469 L 380.84375 228.980469 C 386.574219 222.863281 390.78125 215.503906 393.167969 207.476562 Z M 316.828125 228.980469 L 322.085938 228.980469 C 327.816406 222.863281 332.019531 215.503906 334.503906 207.476562 L 328.390625 207.476562 C 326.097656 215.410156 322.179688 222.769531 316.828125 228.980469 Z M 326.289062 228.980469 L 331.542969 228.980469 C 337.277344 222.863281 341.480469 215.503906 343.964844 207.476562 L 337.847656 207.476562 C 335.460938 215.410156 331.542969 222.769531 326.289062 228.980469 Z M 335.746094 228.980469 L 341 228.980469 C 346.734375 222.863281 350.9375 215.503906 353.421875 207.476562 L 347.210938 207.476562 C 344.917969 215.410156 341 222.769531 335.746094 228.980469 Z M 345.207031 228.980469 L 350.460938 228.980469 C 356.191406 222.863281 360.398438 215.503906 362.882812 207.476562 L 356.765625 207.476562 C 354.378906 215.410156 350.460938 222.769531 345.207031 228.980469 Z M 354.570312 228.980469 L 359.824219 228.980469 C 365.554688 222.863281 369.761719 215.503906 372.246094 207.476562 L 366.128906 207.476562 C 363.835938 215.410156 359.917969 222.769531 354.570312 228.980469 Z M 364.027344 228.980469 L 369.28125 228.980469 C 375.015625 222.863281 379.21875 215.503906 381.703125 207.476562 L 375.589844 207.476562 C 373.296875 215.410156 369.378906 222.769531 364.027344 228.980469 Z M 364.21875 204.417969 L 384.089844 204.417969 C 383.421875 203.941406 382.851562 203.273438 382.46875 202.410156 C 381.417969 200.5 381.035156 197.917969 382.753906 196.199219 C 384.472656 194.476562 387.722656 195.050781 388.296875 197.632812 C 388.773438 199.542969 386.863281 201.167969 385.144531 200.976562 C 385.144531 201.074219 385.238281 201.074219 385.238281 201.167969 C 385.90625 202.316406 386.863281 202.507812 388.105469 202.507812 C 389.347656 202.507812 390.492188 202.410156 391.449219 201.550781 C 393.359375 199.734375 392.976562 196.675781 392.117188 194.476562 C 391.257812 192.28125 389.539062 190.367188 387.4375 189.316406 C 384.953125 187.980469 381.796875 187.882812 379.21875 188.933594 C 376.925781 195.722656 371.003906 201.742188 364.21875 204.417969 Z M 329.25 204.417969 L 348.550781 204.417969 C 342.242188 202.21875 336.414062 197.917969 331.257812 193.714844 C 331.160156 194.097656 331.160156 194.476562 331.066406 194.957031 C 330.683594 198.109375 330.015625 201.265625 329.25 204.417969 Z M 315.96875 207.476562 C 312.050781 215.886719 306.222656 223.246094 299.058594 228.980469 L 312.722656 228.980469 C 318.453125 222.863281 322.65625 215.503906 325.140625 207.476562 L 316.351562 207.476562 C 316.160156 207.476562 316.066406 207.476562 315.96875 207.476562 Z M 262.5625 238.539062 C 293.230469 238.539062 318.167969 213.59375 318.167969 182.914062 C 318.167969 152.234375 293.230469 127.289062 262.5625 127.289062 C 231.890625 127.289062 206.953125 152.234375 206.953125 182.914062 C 206.953125 213.59375 231.890625 238.539062 262.5625 238.539062 Z M 200.171875 207.476562 C 202.558594 215.503906 206.859375 222.863281 212.589844 228.980469 L 226.253906 228.980469 C 218.992188 223.246094 213.164062 215.886719 209.34375 207.476562 C 209.246094 207.476562 209.152344 207.476562 209.054688 207.476562 Z M 165.394531 228.980469 L 170.648438 228.980469 C 165.394531 222.769531 161.476562 215.410156 159.183594 207.476562 L 153.066406 207.476562 C 155.359375 215.503906 159.660156 222.863281 165.394531 228.980469 Z M 149.628906 207.476562 L 143.511719 207.476562 C 145.902344 215.503906 150.203125 222.863281 155.933594 228.980469 L 161.1875 228.980469 C 155.839844 222.769531 151.921875 215.410156 149.628906 207.476562 Z M 174.757812 228.980469 L 180.011719 228.980469 C 174.757812 222.769531 170.839844 215.410156 168.546875 207.476562 L 162.429688 207.476562 C 164.820312 215.503906 169.023438 222.863281 174.757812 228.980469 Z M 184.214844 228.980469 L 189.46875 228.980469 C 184.214844 222.769531 180.296875 215.410156 178.003906 207.476562 L 171.890625 207.476562 C 174.277344 215.503906 178.480469 222.863281 184.214844 228.980469 Z M 193.671875 228.980469 L 198.929688 228.980469 C 193.671875 222.769531 189.757812 215.410156 187.464844 207.476562 L 181.347656 207.476562 C 183.738281 215.503906 187.941406 222.863281 193.671875 228.980469 Z M 203.132812 228.980469 L 208.386719 228.980469 C 203.132812 222.769531 199.214844 215.410156 196.921875 207.476562 L 190.808594 207.476562 C 193.195312 215.503906 197.398438 222.863281 203.132812 228.980469 Z M 176.570312 204.417969 L 195.871094 204.417969 C 195.105469 201.265625 194.4375 198.109375 194.054688 194.859375 C 193.960938 194.476562 193.960938 194.097656 193.863281 193.617188 C 188.800781 197.824219 182.972656 202.21875 176.570312 204.417969 Z M 142.75 202.410156 C 142.269531 203.273438 141.699219 203.84375 141.125 204.417969 L 160.996094 204.417969 C 154.214844 201.742188 148.289062 195.816406 145.902344 188.742188 C 143.324219 187.691406 140.167969 187.882812 137.683594 189.125 C 135.582031 190.273438 133.863281 192.089844 133.003906 194.289062 C 132.144531 196.484375 131.761719 199.640625 133.671875 201.359375 C 134.628906 202.21875 135.773438 202.316406 137.015625 202.316406 C 138.257812 202.316406 139.214844 202.125 139.882812 200.976562 C 139.882812 200.976562 139.976562 200.882812 139.976562 200.785156 C 138.257812 200.976562 136.441406 199.449219 136.824219 197.441406 C 137.398438 194.859375 140.648438 194.289062 142.367188 196.007812 C 144.183594 197.917969 143.800781 200.402344 142.75 202.410156 Z M 144.375 228.980469 L 151.730469 228.980469 C 146.476562 222.769531 142.558594 215.410156 140.265625 207.476562 L 132.046875 207.476562 C 134.4375 215.503906 138.640625 222.863281 144.375 228.980469 Z M 440.367188 248.097656 C 438.839844 245.707031 437.214844 243.414062 435.589844 241.023438 C 435.398438 241.121094 435.113281 241.214844 434.824219 241.214844 L 306.796875 241.214844 C 306.511719 244.082031 304.027344 246.28125 301.066406 246.28125 C 297.910156 246.28125 295.332031 243.699219 295.332031 240.546875 C 295.332031 237.390625 297.910156 234.8125 301.066406 234.8125 C 303.359375 234.8125 305.363281 236.148438 306.222656 238.0625 L 433.488281 238.0625 C 432.054688 236.054688 430.621094 234.046875 429.09375 232.039062 L 294.855469 232.039062 C 294.757812 232.039062 294.757812 232.039062 294.664062 232.039062 C 285.394531 238.0625 274.40625 241.597656 262.5625 241.597656 C 250.714844 241.597656 239.726562 238.0625 230.457031 232.039062 C 230.363281 232.039062 230.363281 232.039062 230.265625 232.039062 L 96.027344 232.039062 C 94.59375 234.046875 93.066406 236.054688 91.632812 238.0625 L 218.898438 238.0625 C 219.851562 236.148438 221.761719 234.8125 224.054688 234.8125 C 227.210938 234.8125 229.789062 237.390625 229.789062 240.546875 C 229.789062 243.699219 227.210938 246.28125 224.054688 246.28125 C 221.09375 246.28125 218.609375 244.082031 218.324219 241.214844 L 90.296875 241.214844 C 90.007812 241.214844 89.722656 241.121094 89.53125 241.023438 C 87.90625 243.316406 86.28125 245.707031 84.753906 248.097656 Z M 262.5625 104.730469 C 333.453125 104.730469 392.976562 154.910156 405.109375 224.394531 L 408.265625 224.394531 C 402.53125 190.75 385.046875 159.976562 359.058594 137.515625 C 332.402344 114.289062 298.101562 101.578125 262.5625 101.578125 C 227.304688 101.578125 193.195312 114.195312 166.445312 137.132812 C 140.167969 159.59375 122.589844 190.558594 116.761719 224.394531 L 119.914062 224.394531 C 132.144531 155.003906 191.859375 104.730469 262.5625 104.730469 Z M 262.5625 104.730469 " fill-opacity="1" fill-rule="nonzero"/></g><g clip-path="url(#4cbbc5259b)"><path fill="#ffffff" d="M 262.386719 124.640625 C 230.394531 124.640625 204.371094 150.667969 204.371094 182.65625 C 204.371094 214.648438 230.394531 240.675781 262.386719 240.675781 C 294.375 240.675781 320.398438 214.648438 320.398438 182.65625 C 320.398438 150.667969 294.375 124.640625 262.386719 124.640625 Z M 262.386719 238.996094 C 231.324219 238.996094 206.050781 213.722656 206.050781 182.65625 C 206.050781 151.59375 231.324219 126.320312 262.386719 126.320312 C 293.449219 126.320312 318.722656 151.589844 318.722656 182.65625 C 318.722656 213.722656 293.449219 238.996094 262.386719 238.996094 Z M 262.386719 238.996094 " fill-opacity="1" fill-rule="nonzero"/></g><path fill="#ffffff" d="M 299.320312 145.722656 C 298.617188 145.015625 297.890625 144.332031 297.148438 143.667969 C 296.402344 143.003906 295.640625 142.363281 294.859375 141.742188 C 294.078125 141.121094 293.277344 140.527344 292.464844 139.953125 C 291.648438 139.378906 290.816406 138.828125 289.96875 138.300781 C 289.121094 137.773438 288.261719 137.269531 287.386719 136.792969 C 286.507812 136.316406 285.621094 135.863281 284.71875 135.4375 C 283.816406 135.011719 282.90625 134.613281 281.980469 134.238281 C 281.054688 133.863281 280.121094 133.515625 279.175781 133.195312 C 278.230469 132.875 277.277344 132.582031 276.316406 132.316406 C 275.355469 132.050781 274.386719 131.8125 273.414062 131.601562 C 272.4375 131.390625 271.457031 131.207031 270.472656 131.054688 C 269.488281 130.898438 268.5 130.773438 267.507812 130.675781 C 266.515625 130.578125 265.519531 130.507812 264.523438 130.46875 C 263.527344 130.425781 262.527344 130.414062 261.53125 130.429688 C 260.535156 130.449219 259.539062 130.492188 258.542969 130.566406 C 257.550781 130.640625 256.558594 130.742188 255.570312 130.871094 C 254.578125 131 253.597656 131.160156 252.617188 131.347656 C 251.636719 131.53125 250.664062 131.746094 249.695312 131.988281 C 248.726562 132.230469 247.769531 132.503906 246.816406 132.800781 C 245.863281 133.097656 244.921875 133.421875 243.988281 133.773438 C 243.054688 134.125 242.132812 134.5 241.21875 134.90625 C 240.308594 135.308594 239.410156 135.738281 238.519531 136.195312 C 237.632812 136.652344 236.761719 137.132812 235.902344 137.636719 C 235.042969 138.144531 234.195312 138.671875 233.367188 139.226562 C 232.539062 139.78125 231.726562 140.359375 230.929688 140.960938 C 230.132812 141.5625 229.355469 142.183594 228.59375 142.828125 C 227.832031 143.472656 227.09375 144.140625 226.371094 144.828125 C 225.648438 145.515625 224.945312 146.222656 224.265625 146.953125 C 223.582031 147.679688 222.921875 148.425781 222.28125 149.191406 C 221.644531 149.957031 221.027344 150.742188 220.433594 151.542969 C 219.839844 152.34375 219.269531 153.160156 218.722656 153.996094 C 218.171875 154.828125 217.652344 155.679688 217.152344 156.542969 C 216.652344 157.40625 216.179688 158.28125 215.730469 159.171875 C 215.28125 160.066406 214.859375 160.96875 214.464844 161.882812 C 214.066406 162.796875 213.695312 163.722656 213.351562 164.660156 C 213.007812 165.597656 212.691406 166.542969 212.402344 167.496094 C 212.113281 168.449219 211.851562 169.414062 211.617188 170.382812 C 211.382812 171.351562 211.175781 172.328125 211 173.308594 C 210.820312 174.289062 210.667969 175.273438 210.546875 176.265625 C 210.425781 177.253906 210.332031 178.246094 210.265625 179.242188 C 210.203125 180.238281 210.164062 181.234375 210.15625 182.230469 C 210.148438 183.230469 210.167969 184.226562 210.21875 185.222656 C 210.265625 186.21875 210.34375 187.210938 210.449219 188.203125 C 210.554688 189.195312 210.691406 190.183594 210.851562 191.167969 C 211.015625 192.152344 211.207031 193.128906 211.425781 194.101562 C 211.644531 195.074219 211.890625 196.042969 212.164062 197 C 212.4375 197.960938 212.738281 198.910156 213.066406 199.851562 C 213.394531 200.792969 213.75 201.726562 214.132812 202.648438 C 214.511719 203.570312 214.921875 204.476562 215.355469 205.375 C 215.789062 206.273438 216.246094 207.160156 216.730469 208.03125 C 217.214844 208.902344 217.726562 209.761719 218.257812 210.601562 C 218.792969 211.445312 219.351562 212.273438 219.929688 213.082031 C 220.511719 213.894531 221.117188 214.6875 221.742188 215.464844 C 222.367188 216.238281 223.015625 216.996094 223.6875 217.734375 C 224.355469 218.476562 225.046875 219.195312 225.757812 219.894531 C 226.46875 220.59375 227.199219 221.269531 227.949219 221.929688 C 228.699219 222.585938 229.46875 223.222656 230.253906 223.835938 C 231.039062 224.449219 231.84375 225.039062 232.664062 225.609375 C 233.484375 226.175781 234.320312 226.71875 235.167969 227.238281 C 236.019531 227.757812 236.886719 228.253906 237.765625 228.722656 C 238.644531 229.195312 239.539062 229.636719 240.441406 230.058594 C 241.347656 230.476562 242.265625 230.867188 243.191406 231.234375 C 244.121094 231.601562 245.058594 231.941406 246.003906 232.253906 C 246.953125 232.566406 247.90625 232.851562 248.871094 233.109375 C 249.832031 233.371094 250.804688 233.597656 251.78125 233.800781 C 252.757812 234.003906 253.738281 234.179688 254.722656 234.324219 C 255.710938 234.472656 256.699219 234.589844 257.695312 234.679688 C 258.6875 234.769531 259.683594 234.832031 260.679688 234.863281 C 261.675781 234.894531 262.671875 234.898438 263.671875 234.875 C 264.667969 234.851562 265.664062 234.796875 266.65625 234.714844 C 267.652344 234.632812 268.640625 234.523438 269.628906 234.386719 C 270.617188 234.25 271.601562 234.082031 272.578125 233.886719 C 273.558594 233.691406 274.527344 233.46875 275.496094 233.21875 C 276.460938 232.96875 277.417969 232.691406 278.367188 232.386719 C 279.316406 232.082031 280.257812 231.75 281.1875 231.390625 C 282.117188 231.03125 283.035156 230.644531 283.945312 230.234375 C 284.855469 229.824219 285.75 229.386719 286.632812 228.921875 C 287.515625 228.460938 288.386719 227.972656 289.242188 227.460938 C 290.097656 226.945312 290.9375 226.410156 291.761719 225.847656 C 292.585938 225.289062 293.394531 224.703125 294.1875 224.097656 C 294.976562 223.488281 295.75 222.859375 296.503906 222.207031 C 297.261719 221.558594 297.996094 220.882812 298.714844 220.191406 C 299.429688 219.496094 300.125 218.785156 300.800781 218.050781 C 301.476562 217.316406 302.132812 216.566406 302.765625 215.792969 C 303.398438 215.023438 304.007812 214.234375 304.59375 213.429688 C 305.183594 212.621094 305.746094 211.800781 306.289062 210.960938 C 306.828125 210.125 307.34375 209.269531 307.835938 208.402344 C 308.328125 207.535156 308.792969 206.652344 309.234375 205.757812 C 309.675781 204.863281 310.089844 203.957031 310.480469 203.039062 C 310.871094 202.121094 311.230469 201.191406 311.566406 200.253906 C 311.902344 199.316406 312.210938 198.367188 312.496094 197.410156 C 312.777344 196.453125 313.03125 195.488281 313.257812 194.519531 C 313.484375 193.546875 313.683594 192.570312 313.851562 191.585938 C 314.023438 190.605469 314.164062 189.617188 314.277344 188.625 C 314.394531 187.636719 314.480469 186.640625 314.535156 185.648438 C 314.59375 184.652344 314.621094 183.65625 314.621094 182.65625 C 314.625 179.226562 314.292969 175.828125 313.628906 172.464844 C 312.960938 169.097656 311.96875 165.832031 310.65625 162.664062 C 309.34375 159.492188 307.734375 156.484375 305.828125 153.632812 C 303.917969 150.78125 301.75 148.144531 299.320312 145.722656 Z M 296.535156 216.804688 C 293.949219 219.394531 291.101562 221.660156 288 223.605469 L 287.214844 192.445312 C 287.195312 191.902344 287.25 191.367188 287.378906 190.839844 C 287.507812 190.3125 287.707031 189.8125 287.976562 189.339844 C 288.246094 188.867188 288.578125 188.441406 288.96875 188.0625 C 289.355469 187.679688 289.789062 187.363281 290.269531 187.105469 C 291.882812 186.207031 292.96875 184.804688 292.824219 182.894531 L 291 157.367188 C 290.964844 156.914062 290.050781 156.9375 290.046875 157.394531 L 289.992188 180.429688 C 289.988281 181.414062 288.210938 181.421875 288.191406 180.441406 L 287.398438 157.390625 C 287.382812 156.921875 286.445312 156.921875 286.433594 157.390625 L 286.136719 180.441406 C 286.125 180.929688 285.679688 181.171875 285.238281 181.171875 C 285.011719 181.199219 284.808594 181.140625 284.632812 180.996094 C 284.457031 180.855469 284.359375 180.667969 284.339844 180.441406 L 284.039062 157.390625 C 284.027344 156.921875 283.089844 156.921875 283.074219 157.390625 L 282.285156 180.441406 C 282.261719 181.421875 280.484375 181.414062 280.480469 180.429688 L 280.425781 157.394531 C 280.425781 156.9375 279.507812 156.914062 279.472656 157.367188 L 277.648438 182.894531 C 277.5 184.804688 278.585938 186.207031 280.203125 187.105469 C 280.679688 187.363281 281.113281 187.679688 281.503906 188.0625 C 281.894531 188.441406 282.222656 188.867188 282.496094 189.339844 C 282.765625 189.808594 282.964844 190.3125 283.09375 190.839844 C 283.222656 191.367188 283.277344 191.902344 283.257812 192.445312 L 282.394531 226.621094 C 277.050781 229.058594 271.449219 230.464844 265.589844 230.84375 L 265.628906 197.785156 C 265.625 197.5625 265.539062 197.375 265.378906 197.21875 C 265.21875 197.066406 265.027344 196.988281 264.804688 196.992188 L 263.367188 196.992188 C 263.195312 196.988281 263.03125 196.953125 262.875 196.886719 C 262.71875 196.820312 262.578125 196.722656 262.457031 196.601562 C 262.335938 196.480469 262.246094 196.339844 262.179688 196.179688 C 262.113281 196.023438 262.082031 195.855469 262.082031 195.683594 C 262.082031 195.511719 262.113281 195.347656 262.179688 195.191406 C 262.246094 195.03125 262.335938 194.890625 262.457031 194.769531 C 262.578125 194.644531 262.71875 194.550781 262.875 194.484375 C 263.03125 194.417969 263.195312 194.382812 263.367188 194.378906 L 263.972656 194.378906 C 264.265625 194.382812 264.53125 194.296875 264.765625 194.121094 C 265 193.945312 265.160156 193.714844 265.238281 193.433594 C 268.621094 181.9375 267.894531 151.945312 262.851562 146.554688 C 261.078125 144.660156 259.027344 146.101562 259.027344 148.5625 L 259.027344 230.835938 C 253.222656 230.441406 247.671875 229.035156 242.378906 226.625 L 241.503906 192 C 241.484375 191.488281 241.53125 190.984375 241.644531 190.488281 C 241.757812 189.992188 241.933594 189.515625 242.171875 189.066406 C 242.410156 188.613281 242.703125 188.203125 243.050781 187.828125 C 243.394531 187.453125 243.785156 187.132812 244.21875 186.859375 C 244.820312 186.46875 245.378906 186.019531 245.894531 185.515625 C 248.347656 183.128906 249.925781 179.394531 249.925781 175.183594 C 249.925781 167.957031 245.273438 156.648438 239.539062 156.648438 C 233.800781 156.648438 229.144531 167.957031 229.144531 175.183594 C 229.144531 179.355469 230.699219 183.066406 233.117188 185.457031 C 233.648438 185.984375 234.226562 186.453125 234.855469 186.859375 C 235.285156 187.132812 235.675781 187.453125 236.023438 187.828125 C 236.371094 188.199219 236.664062 188.613281 236.902344 189.066406 C 237.140625 189.515625 237.316406 189.988281 237.429688 190.488281 C 237.542969 190.984375 237.589844 191.488281 237.570312 192 L 236.773438 223.605469 C 235.367188 222.726562 234.007812 221.78125 232.703125 220.761719 C 231.394531 219.742188 230.140625 218.660156 228.945312 217.511719 C 227.75 216.363281 226.613281 215.15625 225.542969 213.890625 C 224.46875 212.628906 223.464844 211.3125 222.527344 209.941406 C 221.589844 208.574219 220.726562 207.164062 219.9375 205.707031 C 219.144531 204.25 218.429688 202.753906 217.792969 201.222656 C 217.15625 199.691406 216.597656 198.132812 216.121094 196.546875 C 215.644531 194.957031 215.253906 193.351562 214.941406 191.722656 C 214.628906 190.09375 214.402344 188.453125 214.261719 186.800781 C 214.117188 185.148438 214.0625 183.492188 214.089844 181.835938 C 214.117188 180.179688 214.230469 178.527344 214.429688 176.878906 C 214.628906 175.234375 214.910156 173.601562 215.277344 171.984375 C 215.644531 170.367188 216.089844 168.773438 216.621094 167.203125 C 217.152344 165.632812 217.761719 164.09375 218.449219 162.585938 C 219.140625 161.078125 219.90625 159.609375 220.746094 158.179688 C 221.585938 156.75 222.496094 155.367188 223.480469 154.03125 C 224.460938 152.699219 225.511719 151.414062 226.625 150.1875 C 227.738281 148.960938 228.914062 147.792969 230.148438 146.6875 C 231.382812 145.582031 232.671875 144.539062 234.015625 143.566406 C 235.355469 142.59375 236.746094 141.691406 238.179688 140.859375 C 239.613281 140.03125 241.085938 139.273438 242.601562 138.59375 C 244.113281 137.917969 245.65625 137.316406 247.230469 136.796875 C 248.804688 136.277344 250.402344 135.839844 252.019531 135.484375 C 253.640625 135.128906 255.273438 134.855469 256.921875 134.667969 C 258.566406 134.480469 260.222656 134.378906 261.878906 134.363281 C 263.535156 134.34375 265.191406 134.414062 266.84375 134.566406 C 268.492188 134.71875 270.132812 134.957031 271.757812 135.277344 C 273.382812 135.601562 274.988281 136.003906 276.574219 136.492188 C 278.160156 136.980469 279.714844 137.546875 281.242188 138.195312 C 282.769531 138.839844 284.257812 139.566406 285.707031 140.367188 C 287.160156 141.167969 288.566406 142.039062 289.929688 142.984375 C 291.289062 143.929688 292.601562 144.945312 293.859375 146.023438 C 295.117188 147.105469 296.3125 148.246094 297.453125 149.453125 C 298.59375 150.65625 299.667969 151.914062 300.679688 153.230469 C 301.691406 154.542969 302.628906 155.90625 303.5 157.320312 C 304.371094 158.730469 305.164062 160.183594 305.882812 161.675781 C 306.605469 163.167969 307.246094 164.695312 307.808594 166.253906 C 308.371094 167.816406 308.855469 169.398438 309.253906 171.007812 C 309.652344 172.617188 309.96875 174.242188 310.203125 175.882812 C 310.433594 177.527344 310.582031 179.175781 310.644531 180.832031 C 310.707031 182.488281 310.683594 184.144531 310.578125 185.796875 C 310.46875 187.453125 310.277344 189.097656 310 190.730469 C 309.722656 192.367188 309.363281 193.984375 308.917969 195.582031 C 308.476562 197.179688 307.949219 198.75 307.34375 200.292969 C 306.738281 201.835938 306.058594 203.34375 305.296875 204.816406 C 304.535156 206.289062 303.703125 207.71875 302.792969 209.109375 C 301.886719 210.496094 300.910156 211.832031 299.863281 213.117188 C 298.816406 214.40625 297.707031 215.632812 296.535156 216.808594 Z M 239.535156 166.195312 C 238.101562 166.195312 236.722656 167.480469 235.894531 168.445312 C 234.355469 170.238281 233.203125 172.582031 232.421875 174.75 C 232.175781 175.441406 231.945312 176.167969 231.746094 176.914062 C 231.648438 176.25 231.601562 175.585938 231.597656 174.914062 C 231.660156 172.4375 232.097656 170.03125 232.910156 167.691406 C 233.636719 165.523438 234.710938 163.175781 236.144531 161.382812 C 236.917969 160.421875 238.199219 159.136719 239.535156 159.136719 C 240.875 159.136719 242.15625 160.421875 242.925781 161.382812 C 244.363281 163.175781 245.4375 165.523438 246.160156 167.691406 C 246.976562 170.03125 247.414062 172.4375 247.472656 174.914062 C 247.472656 175.582031 247.425781 176.25 247.328125 176.910156 C 247.128906 176.167969 246.898438 175.441406 246.648438 174.75 C 245.871094 172.582031 244.71875 170.238281 243.175781 168.445312 C 242.351562 167.480469 240.96875 166.195312 239.535156 166.195312 Z M 239.535156 166.195312 " fill-opacity="1" fill-rule="evenodd"/><g fill="#ffffff" fill-opacity="1"><g transform="translate(77.893423, 306.446207)"><g><path d="M 24.1875 0.6875 C 19.820312 0.6875 16.03125 -0.125 12.8125 -1.75 C 9.59375 -3.375 7.117188 -5.582031 5.390625 -8.375 C 3.671875 -11.175781 2.8125 -14.28125 2.8125 -17.6875 C 2.8125 -21.320312 3.773438 -24.578125 5.703125 -27.453125 C 7.640625 -30.328125 10.3125 -32.554688 13.71875 -34.140625 C 17.132812 -35.734375 20.96875 -36.53125 25.21875 -36.53125 C 27.050781 -36.53125 28.882812 -36.382812 30.71875 -36.09375 C 32.5625 -35.8125 34.039062 -35.441406 35.15625 -34.984375 C 35.570312 -34.828125 35.804688 -34.703125 35.859375 -34.609375 C 35.921875 -34.515625 35.972656 -34.195312 36.015625 -33.65625 L 36.765625 -25.671875 C 36.765625 -25.554688 36.65625 -25.476562 36.4375 -25.4375 C 36.226562 -25.40625 36.109375 -25.460938 36.078125 -25.609375 C 35.578125 -26.878906 34.769531 -28.257812 33.65625 -29.75 C 32.550781 -31.25 31.097656 -32.550781 29.296875 -33.65625 C 27.492188 -34.769531 25.40625 -35.328125 23.03125 -35.328125 C 20.582031 -35.328125 18.34375 -34.65625 16.3125 -33.3125 C 14.28125 -31.96875 12.679688 -30.050781 11.515625 -27.5625 C 10.347656 -25.082031 9.765625 -22.191406 9.765625 -18.890625 C 9.765625 -15.296875 10.441406 -12.082031 11.796875 -9.25 C 13.160156 -6.414062 15.046875 -4.210938 17.453125 -2.640625 C 19.867188 -1.066406 22.585938 -0.28125 25.609375 -0.28125 C 27.179688 -0.28125 28.390625 -0.453125 29.234375 -0.796875 C 30.078125 -1.148438 30.6875 -1.820312 31.0625 -2.8125 C 31.445312 -3.8125 31.640625 -5.285156 31.640625 -7.234375 C 31.640625 -9.222656 31.523438 -10.609375 31.296875 -11.390625 C 31.066406 -12.179688 30.578125 -12.710938 29.828125 -12.984375 C 29.085938 -13.253906 27.78125 -13.390625 25.90625 -13.390625 C 25.675781 -13.390625 25.5625 -13.539062 25.5625 -13.84375 C 25.5625 -13.957031 25.585938 -14.0625 25.640625 -14.15625 C 25.703125 -14.25 25.769531 -14.296875 25.84375 -14.296875 C 29.101562 -14.109375 31.742188 -14.015625 33.765625 -14.015625 C 35.722656 -14.015625 37.753906 -14.070312 39.859375 -14.1875 C 40.015625 -14.1875 40.101562 -14.050781 40.125 -13.78125 C 40.144531 -13.519531 40.054688 -13.390625 39.859375 -13.390625 C 39.171875 -13.421875 38.679688 -13.289062 38.390625 -13 C 38.109375 -12.71875 37.925781 -12.132812 37.84375 -11.25 C 37.769531 -10.375 37.734375 -8.84375 37.734375 -6.65625 C 37.734375 -4.9375 37.800781 -3.710938 37.9375 -2.984375 C 38.070312 -2.253906 38.140625 -1.796875 38.140625 -1.609375 C 38.140625 -1.378906 38.097656 -1.222656 38.015625 -1.140625 C 37.941406 -1.066406 37.769531 -0.992188 37.5 -0.921875 C 32.5625 0.148438 28.125 0.6875 24.1875 0.6875 Z M 24.1875 0.6875 "/></g></g></g><g fill="#ffffff" fill-opacity="1"><g transform="translate(125.615977, 306.446207)"><g><path d="M 40.671875 -0.6875 C 40.742188 -0.6875 40.78125 -0.570312 40.78125 -0.34375 C 40.78125 -0.113281 40.742188 0 40.671875 0 L 30.4375 0 C 29.59375 0 28.019531 -1.519531 25.71875 -4.5625 C 23.425781 -7.601562 20.65625 -11.863281 17.40625 -17.34375 C 17.09375 -17.300781 16.648438 -17.28125 16.078125 -17.28125 C 14.585938 -17.28125 13.535156 -17.300781 12.921875 -17.34375 L 12.921875 -4.65625 C 12.921875 -3.46875 13.015625 -2.601562 13.203125 -2.0625 C 13.398438 -1.53125 13.773438 -1.164062 14.328125 -0.96875 C 14.878906 -0.78125 15.769531 -0.6875 17 -0.6875 C 17.070312 -0.6875 17.109375 -0.570312 17.109375 -0.34375 C 17.109375 -0.113281 17.070312 0 17 0 C 15.738281 0 14.742188 -0.0195312 14.015625 -0.0625 L 9.65625 -0.109375 L 5.453125 -0.0625 C 4.691406 -0.0195312 3.660156 0 2.359375 0 C 2.242188 0 2.1875 -0.113281 2.1875 -0.34375 C 2.1875 -0.570312 2.242188 -0.6875 2.359375 -0.6875 C 3.578125 -0.6875 4.460938 -0.78125 5.015625 -0.96875 C 5.578125 -1.164062 5.960938 -1.539062 6.171875 -2.09375 C 6.378906 -2.644531 6.484375 -3.5 6.484375 -4.65625 L 6.484375 -31.25 C 6.484375 -32.394531 6.390625 -33.234375 6.203125 -33.765625 C 6.015625 -34.304688 5.628906 -34.679688 5.046875 -34.890625 C 4.472656 -35.097656 3.59375 -35.203125 2.40625 -35.203125 C 2.332031 -35.203125 2.296875 -35.316406 2.296875 -35.546875 C 2.296875 -35.773438 2.332031 -35.890625 2.40625 -35.890625 L 5.453125 -35.84375 C 7.210938 -35.757812 8.613281 -35.71875 9.65625 -35.71875 C 10.957031 -35.71875 12.316406 -35.773438 13.734375 -35.890625 C 14.222656 -35.929688 14.84375 -35.972656 15.59375 -36.015625 C 16.34375 -36.054688 17.175781 -36.078125 18.09375 -36.078125 C 21.570312 -36.078125 24.269531 -35.429688 26.1875 -34.140625 C 28.101562 -32.859375 29.0625 -31.070312 29.0625 -28.78125 C 29.0625 -26.664062 28.484375 -24.753906 27.328125 -23.046875 C 26.179688 -21.347656 24.65625 -19.984375 22.75 -18.953125 C 25.8125 -14.359375 28.375 -10.757812 30.4375 -8.15625 C 32.507812 -5.550781 34.347656 -3.65625 35.953125 -2.46875 C 37.566406 -1.28125 39.140625 -0.6875 40.671875 -0.6875 Z M 12.921875 -18.953125 C 13.835938 -18.796875 14.945312 -18.71875 16.25 -18.71875 C 18.476562 -18.71875 20.078125 -19.335938 21.046875 -20.578125 C 22.023438 -21.828125 22.515625 -23.832031 22.515625 -26.59375 C 22.515625 -29.726562 22.054688 -31.890625 21.140625 -33.078125 C 20.222656 -34.265625 18.898438 -34.859375 17.171875 -34.859375 C 15.640625 -34.859375 14.546875 -34.570312 13.890625 -34 C 13.242188 -33.425781 12.921875 -32.46875 12.921875 -31.125 Z M 12.921875 -18.953125 "/></g></g></g><g fill="#ffffff" fill-opacity="1"><g transform="translate(171.443423, 306.446207)"><g><path d="M 13.03125 -4.65625 C 13.03125 -3.46875 13.125 -2.601562 13.3125 -2.0625 C 13.507812 -1.53125 13.882812 -1.164062 14.4375 -0.96875 C 15 -0.78125 15.890625 -0.6875 17.109375 -0.6875 C 17.222656 -0.6875 17.28125 -0.570312 17.28125 -0.34375 C 17.28125 -0.113281 17.222656 0 17.109375 0 C 15.847656 0 14.851562 -0.0195312 14.125 -0.0625 L 9.765625 -0.109375 L 5.515625 -0.0625 C 4.742188 -0.0195312 3.707031 0 2.40625 0 C 2.332031 0 2.296875 -0.113281 2.296875 -0.34375 C 2.296875 -0.570312 2.332031 -0.6875 2.40625 -0.6875 C 3.632812 -0.6875 4.535156 -0.78125 5.109375 -0.96875 C 5.679688 -1.164062 6.070312 -1.539062 6.28125 -2.09375 C 6.5 -2.644531 6.609375 -3.5 6.609375 -4.65625 L 6.609375 -31.25 C 6.609375 -32.394531 6.5 -33.234375 6.28125 -33.765625 C 6.070312 -34.304688 5.679688 -34.679688 5.109375 -34.890625 C 4.535156 -35.097656 3.632812 -35.203125 2.40625 -35.203125 C 2.332031 -35.203125 2.296875 -35.316406 2.296875 -35.546875 C 2.296875 -35.773438 2.332031 -35.890625 2.40625 -35.890625 L 5.515625 -35.84375 C 7.273438 -35.757812 8.691406 -35.71875 9.765625 -35.71875 C 10.953125 -35.71875 12.425781 -35.757812 14.1875 -35.84375 L 17.109375 -35.890625 C 17.222656 -35.890625 17.28125 -35.773438 17.28125 -35.546875 C 17.28125 -35.316406 17.222656 -35.203125 17.109375 -35.203125 C 15.921875 -35.203125 15.039062 -35.085938 14.46875 -34.859375 C 13.894531 -34.628906 13.507812 -34.238281 13.3125 -33.6875 C 13.125 -33.132812 13.03125 -32.28125 13.03125 -31.125 Z M 13.03125 -4.65625 "/></g></g></g><g fill="#ffffff" fill-opacity="1"><g transform="translate(196.826723, 306.446207)"><g><path d="M 12.234375 -4.875 C 12.234375 -3.882812 12.304688 -3.164062 12.453125 -2.71875 C 12.609375 -2.28125 12.90625 -1.984375 13.34375 -1.828125 C 13.789062 -1.679688 14.515625 -1.609375 15.515625 -1.609375 L 17.46875 -1.609375 C 20.445312 -1.609375 23.023438 -2.398438 25.203125 -3.984375 C 27.390625 -5.578125 28.847656 -7.734375 29.578125 -10.453125 C 29.578125 -10.523438 29.65625 -10.5625 29.8125 -10.5625 C 29.882812 -10.5625 29.96875 -10.53125 30.0625 -10.46875 C 30.164062 -10.414062 30.21875 -10.375 30.21875 -10.34375 C 29.863281 -6.550781 29.6875 -3.390625 29.6875 -0.859375 C 29.6875 -0.554688 29.617188 -0.335938 29.484375 -0.203125 C 29.359375 -0.0664062 29.140625 0 28.828125 0 L 1.71875 0 C 1.644531 0 1.609375 -0.113281 1.609375 -0.34375 C 1.609375 -0.570312 1.644531 -0.6875 1.71875 -0.6875 C 2.945312 -0.6875 3.835938 -0.78125 4.390625 -0.96875 C 4.953125 -1.164062 5.335938 -1.539062 5.546875 -2.09375 C 5.753906 -2.644531 5.859375 -3.5 5.859375 -4.65625 L 5.859375 -31.25 C 5.859375 -32.394531 5.753906 -33.234375 5.546875 -33.765625 C 5.335938 -34.304688 4.941406 -34.679688 4.359375 -34.890625 C 3.785156 -35.097656 2.90625 -35.203125 1.71875 -35.203125 C 1.644531 -35.203125 1.609375 -35.316406 1.609375 -35.546875 C 1.609375 -35.773438 1.644531 -35.890625 1.71875 -35.890625 L 4.65625 -35.84375 C 6.414062 -35.757812 7.867188 -35.71875 9.015625 -35.71875 C 10.160156 -35.71875 11.617188 -35.757812 13.390625 -35.84375 L 16.3125 -35.890625 C 16.425781 -35.890625 16.484375 -35.773438 16.484375 -35.546875 C 16.484375 -35.316406 16.425781 -35.203125 16.3125 -35.203125 C 15.125 -35.203125 14.242188 -35.097656 13.671875 -34.890625 C 13.097656 -34.679688 12.710938 -34.296875 12.515625 -33.734375 C 12.328125 -33.179688 12.234375 -32.332031 12.234375 -31.1875 Z M 12.234375 -4.875 "/></g></g></g><g fill="#ffffff" fill-opacity="1"><g transform="translate(233.867778, 306.446207)"><g><path d="M 12.234375 -4.875 C 12.234375 -3.882812 12.304688 -3.164062 12.453125 -2.71875 C 12.609375 -2.28125 12.90625 -1.984375 13.34375 -1.828125 C 13.789062 -1.679688 14.515625 -1.609375 15.515625 -1.609375 L 17.46875 -1.609375 C 20.445312 -1.609375 23.023438 -2.398438 25.203125 -3.984375 C 27.390625 -5.578125 28.847656 -7.734375 29.578125 -10.453125 C 29.578125 -10.523438 29.65625 -10.5625 29.8125 -10.5625 C 29.882812 -10.5625 29.96875 -10.53125 30.0625 -10.46875 C 30.164062 -10.414062 30.21875 -10.375 30.21875 -10.34375 C 29.863281 -6.550781 29.6875 -3.390625 29.6875 -0.859375 C 29.6875 -0.554688 29.617188 -0.335938 29.484375 -0.203125 C 29.359375 -0.0664062 29.140625 0 28.828125 0 L 1.71875 0 C 1.644531 0 1.609375 -0.113281 1.609375 -0.34375 C 1.609375 -0.570312 1.644531 -0.6875 1.71875 -0.6875 C 2.945312 -0.6875 3.835938 -0.78125 4.390625 -0.96875 C 4.953125 -1.164062 5.335938 -1.539062 5.546875 -2.09375 C 5.753906 -2.644531 5.859375 -3.5 5.859375 -4.65625 L 5.859375 -31.25 C 5.859375 -32.394531 5.753906 -33.234375 5.546875 -33.765625 C 5.335938 -34.304688 4.941406 -34.679688 4.359375 -34.890625 C 3.785156 -35.097656 2.90625 -35.203125 1.71875 -35.203125 C 1.644531 -35.203125 1.609375 -35.316406 1.609375 -35.546875 C 1.609375 -35.773438 1.644531 -35.890625 1.71875 -35.890625 L 4.65625 -35.84375 C 6.414062 -35.757812 7.867188 -35.71875 9.015625 -35.71875 C 10.160156 -35.71875 11.617188 -35.757812 13.390625 -35.84375 L 16.3125 -35.890625 C 16.425781 -35.890625 16.484375 -35.773438 16.484375 -35.546875 C 16.484375 -35.316406 16.425781 -35.203125 16.3125 -35.203125 C 15.125 -35.203125 14.242188 -35.097656 13.671875 -34.890625 C 13.097656 -34.679688 12.710938 -34.296875 12.515625 -33.734375 C 12.328125 -33.179688 12.234375 -32.332031 12.234375 -31.1875 Z M 12.234375 -4.875 "/></g></g></g><g fill="#ffffff" fill-opacity="1"><g transform="translate(270.908833, 306.446207)"><g><path d="M 47.84375 -0.6875 C 47.914062 -0.6875 47.953125 -0.570312 47.953125 -0.34375 C 47.953125 -0.113281 47.914062 0 47.84375 0 C 46.539062 0 45.507812 -0.0195312 44.75 -0.0625 L 40.5 -0.109375 L 36.1875 -0.0625 C 35.457031 -0.0195312 34.460938 0 33.203125 0 C 33.085938 0 33.03125 -0.113281 33.03125 -0.34375 C 33.03125 -0.570312 33.085938 -0.6875 33.203125 -0.6875 C 34.804688 -0.6875 35.894531 -0.878906 36.46875 -1.265625 C 37.039062 -1.648438 37.328125 -2.453125 37.328125 -3.671875 L 37.28125 -4.65625 L 36.078125 -28.140625 L 24.234375 -0.40625 C 24.160156 -0.25 24.007812 -0.171875 23.78125 -0.171875 C 23.550781 -0.171875 23.394531 -0.25 23.3125 -0.40625 L 8.78125 -28.03125 L 8.328125 -7.296875 C 8.285156 -5.222656 8.695312 -3.601562 9.5625 -2.4375 C 10.425781 -1.269531 11.640625 -0.6875 13.203125 -0.6875 C 13.328125 -0.6875 13.390625 -0.570312 13.390625 -0.34375 C 13.390625 -0.113281 13.328125 0 13.203125 0 C 12.171875 0 11.367188 -0.0195312 10.796875 -0.0625 L 7.640625 -0.109375 L 4.015625 -0.0625 C 3.410156 -0.0195312 2.585938 0 1.546875 0 C 1.429688 0 1.375 -0.113281 1.375 -0.34375 C 1.375 -0.570312 1.429688 -0.6875 1.546875 -0.6875 C 3.117188 -0.6875 4.363281 -1.28125 5.28125 -2.46875 C 6.195312 -3.65625 6.675781 -5.265625 6.71875 -7.296875 L 7.234375 -31.078125 L 7.171875 -31.125 C 6.410156 -32.539062 5.617188 -33.570312 4.796875 -34.21875 C 3.972656 -34.875 3.023438 -35.203125 1.953125 -35.203125 C 1.835938 -35.203125 1.78125 -35.316406 1.78125 -35.546875 C 1.78125 -35.773438 1.835938 -35.890625 1.953125 -35.890625 L 4.65625 -35.84375 C 5.1875 -35.800781 5.875 -35.78125 6.71875 -35.78125 L 9.765625 -35.84375 C 10.109375 -35.875 10.546875 -35.890625 11.078125 -35.890625 C 11.578125 -35.890625 11.960938 -35.71875 12.234375 -35.375 C 12.503906 -35.03125 13.003906 -34.207031 13.734375 -32.90625 L 26.25 -9.421875 L 37.15625 -34.46875 C 37.382812 -35 37.625 -35.367188 37.875 -35.578125 C 38.125 -35.785156 38.460938 -35.890625 38.890625 -35.890625 C 39.234375 -35.890625 39.625 -35.867188 40.0625 -35.828125 C 40.5 -35.796875 41.003906 -35.78125 41.578125 -35.78125 L 44.96875 -35.84375 C 45.507812 -35.875 46.273438 -35.890625 47.265625 -35.890625 C 47.378906 -35.890625 47.4375 -35.773438 47.4375 -35.546875 C 47.4375 -35.316406 47.378906 -35.203125 47.265625 -35.203125 C 45.472656 -35.203125 44.171875 -34.835938 43.359375 -34.109375 C 42.554688 -33.390625 42.195312 -32.265625 42.28125 -30.734375 L 43.65625 -4.65625 C 43.726562 -3.46875 43.867188 -2.601562 44.078125 -2.0625 C 44.296875 -1.53125 44.679688 -1.164062 45.234375 -0.96875 C 45.785156 -0.78125 46.65625 -0.6875 47.84375 -0.6875 Z M 47.84375 -0.6875 "/></g></g></g><g fill="#ffffff" fill-opacity="1"><g transform="translate(325.867225, 306.446207)"><g><path d="M 41.1875 -0.6875 C 41.375 -0.6875 41.46875 -0.570312 41.46875 -0.34375 C 41.46875 -0.113281 41.375 0 41.1875 0 C 40.414062 0 39.226562 -0.0351562 37.625 -0.109375 C 35.9375 -0.191406 34.726562 -0.234375 34 -0.234375 C 33.039062 -0.234375 31.875 -0.191406 30.5 -0.109375 C 29.195312 -0.0351562 28.160156 0 27.390625 0 C 27.242188 0 27.171875 -0.113281 27.171875 -0.34375 C 27.171875 -0.570312 27.242188 -0.6875 27.390625 -0.6875 C 28.390625 -0.6875 29.109375 -0.789062 29.546875 -1 C 29.992188 -1.21875 30.21875 -1.59375 30.21875 -2.125 C 30.21875 -2.78125 29.832031 -3.875 29.0625 -5.40625 L 25.15625 -13.15625 L 11.03125 -13.15625 L 8.78125 -8.15625 C 8.289062 -7.039062 8.046875 -6.003906 8.046875 -5.046875 C 8.046875 -3.671875 8.53125 -2.597656 9.5 -1.828125 C 10.476562 -1.066406 11.789062 -0.6875 13.4375 -0.6875 C 13.632812 -0.6875 13.734375 -0.570312 13.734375 -0.34375 C 13.734375 -0.113281 13.632812 0 13.4375 0 C 12.75 0 11.753906 -0.0351562 10.453125 -0.109375 C 8.992188 -0.191406 7.726562 -0.234375 6.65625 -0.234375 C 5.625 -0.234375 4.378906 -0.191406 2.921875 -0.109375 C 1.617188 -0.0351562 0.566406 0 -0.234375 0 C -0.378906 0 -0.453125 -0.113281 -0.453125 -0.34375 C -0.453125 -0.570312 -0.378906 -0.6875 -0.234375 -0.6875 C 0.835938 -0.6875 1.738281 -0.90625 2.46875 -1.34375 C 3.195312 -1.789062 3.925781 -2.578125 4.65625 -3.703125 C 5.382812 -4.835938 6.242188 -6.515625 7.234375 -8.734375 L 19.703125 -36.125 C 19.773438 -36.238281 19.945312 -36.296875 20.21875 -36.296875 C 20.519531 -36.296875 20.691406 -36.238281 20.734375 -36.125 L 35.09375 -7.875 C 36.4375 -5.15625 37.546875 -3.273438 38.421875 -2.234375 C 39.304688 -1.203125 40.226562 -0.6875 41.1875 -0.6875 Z M 11.78125 -14.765625 L 24.296875 -14.765625 L 17.6875 -27.859375 Z M 11.78125 -14.765625 "/></g></g></g><g fill="#ffffff" fill-opacity="1"><g transform="translate(372.728374, 306.446207)"><g><path d="M 12.75 -34.578125 C 8.195312 -34.578125 4.921875 -31.609375 2.921875 -25.671875 C 2.890625 -25.554688 2.773438 -25.507812 2.578125 -25.53125 C 2.390625 -25.550781 2.296875 -25.617188 2.296875 -25.734375 C 2.453125 -27.265625 2.625 -29.242188 2.8125 -31.671875 C 3.007812 -34.109375 3.109375 -35.9375 3.109375 -37.15625 C 3.109375 -37.351562 3.210938 -37.453125 3.421875 -37.453125 C 3.628906 -37.453125 3.734375 -37.351562 3.734375 -37.15625 C 3.734375 -36.3125 4.820312 -35.890625 7 -35.890625 C 10.300781 -35.773438 14.148438 -35.71875 18.546875 -35.71875 C 20.804688 -35.71875 23.203125 -35.757812 25.734375 -35.84375 L 29.640625 -35.890625 C 31.097656 -35.890625 32.160156 -35.984375 32.828125 -36.171875 C 33.492188 -36.367188 33.925781 -36.753906 34.125 -37.328125 C 34.15625 -37.484375 34.273438 -37.5625 34.484375 -37.5625 C 34.703125 -37.5625 34.8125 -37.484375 34.8125 -37.328125 C 34.695312 -36.179688 34.570312 -34.34375 34.4375 -31.8125 C 34.300781 -29.289062 34.234375 -27.265625 34.234375 -25.734375 C 34.234375 -25.617188 34.132812 -25.5625 33.9375 -25.5625 C 33.75 -25.5625 33.632812 -25.617188 33.59375 -25.734375 C 33.019531 -28.679688 31.945312 -30.890625 30.375 -32.359375 C 28.8125 -33.835938 26.878906 -34.578125 24.578125 -34.578125 C 23.472656 -34.578125 22.738281 -34.335938 22.375 -33.859375 C 22.007812 -33.378906 21.828125 -32.46875 21.828125 -31.125 L 21.828125 -4.65625 C 21.828125 -3.46875 21.941406 -2.601562 22.171875 -2.0625 C 22.398438 -1.53125 22.835938 -1.164062 23.484375 -0.96875 C 24.140625 -0.78125 25.175781 -0.6875 26.59375 -0.6875 C 26.707031 -0.6875 26.765625 -0.570312 26.765625 -0.34375 C 26.765625 -0.113281 26.707031 0 26.59375 0 C 25.21875 0 24.125 -0.0195312 23.3125 -0.0625 L 18.546875 -0.109375 L 13.90625 -0.0625 C 13.09375 -0.0195312 11.976562 0 10.5625 0 C 10.445312 0 10.390625 -0.113281 10.390625 -0.34375 C 10.390625 -0.570312 10.445312 -0.6875 10.5625 -0.6875 C 11.945312 -0.6875 12.972656 -0.78125 13.640625 -0.96875 C 14.304688 -1.164062 14.765625 -1.539062 15.015625 -2.09375 C 15.265625 -2.644531 15.390625 -3.5 15.390625 -4.65625 L 15.390625 -31.25 C 15.390625 -32.550781 15.21875 -33.429688 14.875 -33.890625 C 14.53125 -34.347656 13.820312 -34.578125 12.75 -34.578125 Z M 12.75 -34.578125 "/></g></g></g><g fill="#ffffff" fill-opacity="1"><g transform="translate(415.397332, 306.446207)"><g><path d="M 28.484375 -9.125 C 28.484375 -9.207031 28.5625 -9.25 28.71875 -9.25 C 28.832031 -9.25 28.9375 -9.21875 29.03125 -9.15625 C 29.125 -9.101562 29.171875 -9.054688 29.171875 -9.015625 C 28.796875 -6.023438 28.609375 -3.304688 28.609375 -0.859375 C 28.609375 -0.554688 28.550781 -0.335938 28.4375 -0.203125 C 28.320312 -0.0664062 28.09375 0 27.75 0 L 2.359375 0 C 2.242188 0 2.1875 -0.113281 2.1875 -0.34375 C 2.1875 -0.570312 2.242188 -0.6875 2.359375 -0.6875 C 3.578125 -0.6875 4.460938 -0.78125 5.015625 -0.96875 C 5.578125 -1.164062 5.953125 -1.539062 6.140625 -2.09375 C 6.335938 -2.644531 6.4375 -3.5 6.4375 -4.65625 L 6.4375 -31.25 C 6.4375 -32.394531 6.335938 -33.234375 6.140625 -33.765625 C 5.953125 -34.304688 5.570312 -34.679688 5 -34.890625 C 4.425781 -35.097656 3.546875 -35.203125 2.359375 -35.203125 C 2.242188 -35.203125 2.1875 -35.316406 2.1875 -35.546875 C 2.1875 -35.773438 2.242188 -35.890625 2.359375 -35.890625 L 26.703125 -35.890625 C 27.085938 -35.890625 27.28125 -35.71875 27.28125 -35.375 L 27.390625 -27.75 C 27.390625 -27.664062 27.285156 -27.601562 27.078125 -27.5625 C 26.867188 -27.53125 26.742188 -27.570312 26.703125 -27.6875 C 26.097656 -29.90625 25.066406 -31.550781 23.609375 -32.625 C 22.148438 -33.695312 20.234375 -34.234375 17.859375 -34.234375 L 16.140625 -34.234375 C 14.992188 -34.234375 14.148438 -33.984375 13.609375 -33.484375 C 13.078125 -32.984375 12.8125 -32.21875 12.8125 -31.1875 L 12.8125 -19.46875 L 17.578125 -19.46875 C 19.796875 -19.46875 21.5 -19.847656 22.6875 -20.609375 C 23.875 -21.378906 24.46875 -22.457031 24.46875 -23.84375 C 24.46875 -23.957031 24.570312 -24.015625 24.78125 -24.015625 C 24.988281 -24.015625 25.09375 -23.957031 25.09375 -23.84375 L 25.046875 -18.671875 L 25.09375 -15.90625 C 25.175781 -14.601562 25.21875 -13.570312 25.21875 -12.8125 C 25.21875 -12.726562 25.101562 -12.6875 24.875 -12.6875 C 24.644531 -12.6875 24.53125 -12.726562 24.53125 -12.8125 C 24.53125 -14.375 23.925781 -15.601562 22.71875 -16.5 C 21.507812 -17.40625 19.773438 -17.859375 17.515625 -17.859375 L 12.8125 -17.859375 L 12.8125 -4.875 C 12.8125 -3.769531 13.019531 -2.945312 13.4375 -2.40625 C 13.863281 -1.875 14.535156 -1.609375 15.453125 -1.609375 L 17.34375 -1.609375 C 20.332031 -1.609375 22.722656 -2.21875 24.515625 -3.4375 C 26.316406 -4.664062 27.640625 -6.5625 28.484375 -9.125 Z M 28.484375 -9.125 "/></g></g></g><g fill="#ffffff" fill-opacity="1"><g transform="translate(114.9286, 353.836417)"><g><path d="M 9.75 -9.203125 L 9.6875 -9.203125 C 9.320312 -8.328125 8.738281 -6.863281 7.9375 -4.8125 C 7.144531 -2.757812 6.503906 -1.179688 6.015625 -0.078125 C 5.984375 -0.0234375 5.867188 0 5.671875 0 C 5.472656 0 5.363281 -0.0234375 5.34375 -0.078125 C 5.34375 -0.078125 5.003906 -0.773438 4.328125 -2.171875 L 2.5625 -5.984375 C 2.5625 -5.984375 1.96875 -7.320312 0.78125 -10 C 0.601562 -10.40625 0.425781 -10.648438 0.25 -10.734375 C 0.195312 -10.765625 0.171875 -10.820312 0.171875 -10.90625 C 0.171875 -10.988281 0.195312 -11.03125 0.25 -11.03125 L 2.6875 -11.03125 C 2.75 -11.03125 2.78125 -10.988281 2.78125 -10.90625 C 2.78125 -10.832031 2.769531 -10.785156 2.75 -10.765625 C 2.726562 -10.753906 2.695312 -10.738281 2.65625 -10.71875 C 2.625 -10.707031 2.597656 -10.691406 2.578125 -10.671875 C 2.328125 -10.421875 2.257812 -10.140625 2.375 -9.828125 L 5.78125 -2.21875 L 5.828125 -2.21875 L 8.765625 -9.828125 C 8.773438 -9.867188 8.789062 -9.921875 8.8125 -9.984375 C 8.84375 -10.054688 8.863281 -10.109375 8.875 -10.140625 C 8.882812 -10.171875 8.894531 -10.210938 8.90625 -10.265625 C 8.925781 -10.316406 8.9375 -10.359375 8.9375 -10.390625 L 8.9375 -10.5 C 8.9375 -10.601562 8.890625 -10.675781 8.796875 -10.71875 C 8.703125 -10.757812 8.65625 -10.800781 8.65625 -10.84375 C 8.65625 -10.96875 8.6875 -11.03125 8.75 -11.03125 L 10.96875 -11.03125 C 11.03125 -11.03125 11.0625 -10.988281 11.0625 -10.90625 C 11.0625 -10.832031 11.050781 -10.785156 11.03125 -10.765625 C 11.007812 -10.753906 10.976562 -10.738281 10.9375 -10.71875 C 10.90625 -10.707031 10.875 -10.6875 10.84375 -10.65625 C 10.820312 -10.625 10.800781 -10.585938 10.78125 -10.546875 C 10.769531 -10.515625 10.773438 -10.46875 10.796875 -10.40625 C 10.804688 -10.3125 10.84375 -10.191406 10.90625 -10.046875 L 10.984375 -9.828125 L 14.390625 -2.21875 L 14.4375 -2.21875 L 17.390625 -9.828125 C 17.492188 -10.140625 17.421875 -10.421875 17.171875 -10.671875 C 17.160156 -10.691406 17.125 -10.710938 17.0625 -10.734375 C 17.007812 -10.765625 16.984375 -10.820312 16.984375 -10.90625 C 16.984375 -10.988281 17.007812 -11.03125 17.0625 -11.03125 L 19.1875 -11.03125 C 19.25 -11.03125 19.28125 -10.988281 19.28125 -10.90625 C 19.28125 -10.832031 19.269531 -10.785156 19.25 -10.765625 C 19.226562 -10.753906 19.195312 -10.738281 19.15625 -10.71875 C 19.007812 -10.65625 18.847656 -10.414062 18.671875 -10 C 18.179688 -8.90625 17.503906 -7.257812 16.640625 -5.0625 C 15.785156 -2.863281 15.113281 -1.203125 14.625 -0.078125 C 14.59375 -0.0234375 14.476562 0 14.28125 0 C 14.09375 0 13.984375 -0.0234375 13.953125 -0.078125 L 12.421875 -3.265625 Z M 9.75 -9.203125 "/></g></g></g><g fill="#ffffff" fill-opacity="1"><g transform="translate(136.428733, 353.836417)"><g><path d="M 6.796875 -6.609375 C 7.117188 -6.609375 7.390625 -6.710938 7.609375 -6.921875 C 7.617188 -6.941406 7.640625 -6.976562 7.671875 -7.03125 C 7.703125 -7.09375 7.757812 -7.125 7.84375 -7.125 C 7.925781 -7.125 7.96875 -7.097656 7.96875 -7.046875 L 7.96875 -5.09375 C 7.96875 -5.03125 7.925781 -5 7.84375 -5 C 7.769531 -5 7.722656 -5.007812 7.703125 -5.03125 C 7.691406 -5.050781 7.675781 -5.078125 7.65625 -5.109375 C 7.644531 -5.148438 7.609375 -5.195312 7.546875 -5.25 C 7.492188 -5.300781 7.390625 -5.359375 7.234375 -5.421875 C 7.085938 -5.484375 6.941406 -5.515625 6.796875 -5.515625 L 2.546875 -5.515625 L 2.546875 -1.09375 L 7.015625 -1.09375 C 7.523438 -1.09375 7.835938 -1.132812 7.953125 -1.21875 C 8.066406 -1.3125 8.144531 -1.390625 8.1875 -1.453125 C 8.238281 -1.523438 8.273438 -1.5625 8.296875 -1.5625 C 8.316406 -1.5625 8.359375 -1.546875 8.421875 -1.515625 C 8.492188 -1.492188 8.53125 -1.472656 8.53125 -1.453125 C 8.53125 -1.441406 8.5 -1.359375 8.4375 -1.203125 L 8.21875 -0.65625 C 8.132812 -0.445312 8.078125 -0.289062 8.046875 -0.1875 C 8.023438 -0.0820312 7.988281 -0.0195312 7.9375 0 L 0.796875 0 C 0.734375 0 0.703125 -0.0351562 0.703125 -0.109375 C 0.703125 -0.191406 0.710938 -0.238281 0.734375 -0.25 C 0.753906 -0.269531 0.78125 -0.285156 0.8125 -0.296875 C 0.851562 -0.316406 0.898438 -0.351562 0.953125 -0.40625 C 1.015625 -0.46875 1.078125 -0.570312 1.140625 -0.71875 C 1.203125 -0.875 1.234375 -1.023438 1.234375 -1.171875 L 1.234375 -9.859375 C 1.234375 -10.179688 1.125 -10.453125 0.90625 -10.671875 C 0.882812 -10.691406 0.84375 -10.710938 0.78125 -10.734375 C 0.726562 -10.765625 0.703125 -10.820312 0.703125 -10.90625 C 0.703125 -10.988281 0.734375 -11.03125 0.796875 -11.03125 L 7.9375 -11.03125 C 7.976562 -11.03125 8.015625 -10.972656 8.046875 -10.859375 C 8.078125 -10.742188 8.132812 -10.582031 8.21875 -10.375 L 8.4375 -9.828125 C 8.5 -9.671875 8.53125 -9.582031 8.53125 -9.5625 C 8.53125 -9.550781 8.492188 -9.535156 8.421875 -9.515625 C 8.359375 -9.492188 8.316406 -9.484375 8.296875 -9.484375 C 8.273438 -9.484375 8.253906 -9.492188 8.234375 -9.515625 C 8.210938 -9.535156 8.1875 -9.566406 8.15625 -9.609375 C 8.132812 -9.660156 8.066406 -9.726562 7.953125 -9.8125 C 7.835938 -9.894531 7.523438 -9.9375 7.015625 -9.9375 L 2.546875 -9.9375 L 2.546875 -6.609375 Z M 6.796875 -6.609375 "/></g></g></g><g fill="#ffffff" fill-opacity="1"><g transform="translate(147.547622, 353.836417)"><g><path d="M 1.296875 -1.171875 L 1.296875 -9.859375 C 1.296875 -10.179688 1.191406 -10.453125 0.984375 -10.671875 C 0.960938 -10.691406 0.921875 -10.710938 0.859375 -10.734375 C 0.804688 -10.765625 0.78125 -10.820312 0.78125 -10.90625 C 0.78125 -10.988281 0.804688 -11.03125 0.859375 -11.03125 L 3.046875 -11.03125 C 3.097656 -11.03125 3.125 -10.988281 3.125 -10.90625 C 3.125 -10.832031 3.113281 -10.785156 3.09375 -10.765625 C 3.082031 -10.753906 3.054688 -10.738281 3.015625 -10.71875 C 2.984375 -10.707031 2.9375 -10.671875 2.875 -10.609375 C 2.820312 -10.554688 2.765625 -10.453125 2.703125 -10.296875 C 2.640625 -10.148438 2.609375 -10.003906 2.609375 -9.859375 L 2.609375 -1.09375 L 7.078125 -1.09375 C 7.585938 -1.09375 7.921875 -1.148438 8.078125 -1.265625 C 8.148438 -1.316406 8.207031 -1.375 8.25 -1.4375 C 8.300781 -1.507812 8.335938 -1.546875 8.359375 -1.546875 C 8.390625 -1.554688 8.4375 -1.546875 8.5 -1.515625 C 8.5625 -1.492188 8.59375 -1.472656 8.59375 -1.453125 C 8.59375 -1.441406 8.5625 -1.359375 8.5 -1.203125 L 8.28125 -0.65625 C 8.207031 -0.445312 8.15625 -0.289062 8.125 -0.1875 C 8.09375 -0.0820312 8.050781 -0.0195312 8 0 L 0.859375 0 C 0.804688 0 0.78125 -0.0351562 0.78125 -0.109375 C 0.78125 -0.191406 0.785156 -0.238281 0.796875 -0.25 C 0.816406 -0.269531 0.84375 -0.285156 0.875 -0.296875 C 0.914062 -0.316406 0.960938 -0.351562 1.015625 -0.40625 C 1.078125 -0.46875 1.140625 -0.570312 1.203125 -0.71875 C 1.265625 -0.875 1.296875 -1.023438 1.296875 -1.171875 Z M 1.296875 -1.171875 "/></g></g></g><g fill="#ffffff" fill-opacity="1"><g transform="translate(158.377021, 353.836417)"><g><path d="M 6.21875 -0.765625 C 7.226562 -0.765625 8.132812 -0.992188 8.9375 -1.453125 C 9.738281 -1.910156 10.398438 -2.523438 10.921875 -3.296875 C 10.984375 -3.390625 11.023438 -3.414062 11.046875 -3.375 C 11.078125 -3.34375 11.113281 -3.296875 11.15625 -3.234375 L 11.375 -2.9375 C 11.4375 -2.820312 11.460938 -2.753906 11.453125 -2.734375 C 11.179688 -2.179688 10.726562 -1.644531 10.09375 -1.125 C 8.914062 -0.144531 7.625 0.34375 6.21875 0.34375 C 5.394531 0.34375 4.625 0.1875 3.90625 -0.125 C 3.195312 -0.4375 2.597656 -0.859375 2.109375 -1.390625 C 1.617188 -1.921875 1.234375 -2.539062 0.953125 -3.25 C 0.671875 -3.96875 0.53125 -4.707031 0.53125 -5.46875 C 0.53125 -6.226562 0.679688 -6.957031 0.984375 -7.65625 C 1.296875 -8.351562 1.703125 -8.957031 2.203125 -9.46875 C 2.710938 -9.976562 3.316406 -10.382812 4.015625 -10.6875 C 4.710938 -11 5.414062 -11.15625 6.125 -11.15625 C 6.96875 -11.15625 7.816406 -10.992188 8.671875 -10.671875 L 8.984375 -10.5625 C 9.023438 -10.539062 9.085938 -10.554688 9.171875 -10.609375 C 9.253906 -10.660156 9.335938 -10.6875 9.421875 -10.6875 C 9.515625 -10.6875 9.585938 -10.644531 9.640625 -10.5625 C 9.660156 -10.550781 9.664062 -10.503906 9.65625 -10.421875 C 9.644531 -10.285156 9.703125 -9.988281 9.828125 -9.53125 L 9.984375 -8.78125 C 10.035156 -8.59375 10.0625 -8.472656 10.0625 -8.421875 C 10.0625 -8.390625 10.003906 -8.34375 9.890625 -8.28125 C 9.773438 -8.226562 9.707031 -8.21875 9.6875 -8.25 C 9.3125 -8.90625 8.84375 -9.351562 8.28125 -9.59375 C 7.71875 -9.84375 7.015625 -9.96875 6.171875 -9.96875 C 5.328125 -9.96875 4.566406 -9.773438 3.890625 -9.390625 C 3.210938 -9.015625 2.6875 -8.484375 2.3125 -7.796875 C 1.945312 -7.117188 1.765625 -6.347656 1.765625 -5.484375 C 1.765625 -4.921875 1.894531 -4.347656 2.15625 -3.765625 C 2.414062 -3.191406 2.75 -2.6875 3.15625 -2.25 C 3.570312 -1.8125 4.050781 -1.453125 4.59375 -1.171875 C 5.144531 -0.898438 5.6875 -0.765625 6.21875 -0.765625 Z M 6.21875 -0.765625 "/></g></g></g><g fill="#ffffff" fill-opacity="1"><g transform="translate(172.343683, 353.836417)"><g><path d="M 5 -1.140625 C 5.445312 -0.960938 5.878906 -0.875 6.296875 -0.875 C 7.734375 -0.875 8.878906 -1.296875 9.734375 -2.140625 C 10.585938 -2.984375 11.015625 -4.113281 11.015625 -5.53125 C 11.015625 -6.019531 10.890625 -6.535156 10.640625 -7.078125 C 10.390625 -7.617188 10.050781 -8.113281 9.625 -8.5625 C 9.207031 -9.007812 8.695312 -9.378906 8.09375 -9.671875 C 7.488281 -9.960938 6.804688 -10.109375 6.046875 -10.109375 C 5.285156 -10.109375 4.566406 -9.914062 3.890625 -9.53125 C 3.210938 -9.144531 2.6875 -8.609375 2.3125 -7.921875 C 1.945312 -7.242188 1.765625 -6.453125 1.765625 -5.546875 C 1.765625 -4.648438 2.09375 -3.773438 2.75 -2.921875 C 3.40625 -2.078125 4.15625 -1.484375 5 -1.140625 Z M 2.171875 -1.46875 C 1.671875 -1.988281 1.269531 -2.609375 0.96875 -3.328125 C 0.675781 -4.046875 0.53125 -4.789062 0.53125 -5.5625 C 0.53125 -6.332031 0.6875 -7.066406 1 -7.765625 C 1.3125 -8.460938 1.722656 -9.066406 2.234375 -9.578125 C 2.753906 -10.085938 3.363281 -10.492188 4.0625 -10.796875 C 4.757812 -11.109375 5.453125 -11.265625 6.140625 -11.265625 C 6.828125 -11.265625 7.472656 -11.175781 8.078125 -11 C 9.253906 -10.644531 10.234375 -9.984375 11.015625 -9.015625 C 11.804688 -8.046875 12.203125 -6.90625 12.203125 -5.59375 C 12.203125 -4.832031 12.0625 -4.097656 11.78125 -3.390625 C 11.507812 -2.691406 11.125 -2.070312 10.625 -1.53125 C 10.125 -0.988281 9.488281 -0.554688 8.71875 -0.234375 C 7.957031 0.0859375 7.15625 0.25 6.3125 0.25 C 5.46875 0.25 4.691406 0.09375 3.984375 -0.21875 C 3.285156 -0.53125 2.679688 -0.945312 2.171875 -1.46875 Z M 2.171875 -1.46875 "/></g></g></g><g fill="#ffffff" fill-opacity="1"><g transform="translate(187.151885, 353.836417)"><g><path d="M 2.609375 -10.40625 C 2.328125 -10.5 2.101562 -10.546875 1.9375 -10.546875 C 1.695312 -10.546875 1.503906 -10.53125 1.359375 -10.5 C 1.210938 -10.476562 1.132812 -10.476562 1.125 -10.5 C 1.113281 -10.519531 1.109375 -10.550781 1.109375 -10.59375 C 1.109375 -10.644531 1.125 -10.691406 1.15625 -10.734375 C 1.1875 -10.785156 1.222656 -10.816406 1.265625 -10.828125 C 1.929688 -10.984375 2.847656 -11.0625 4.015625 -11.0625 L 7.390625 -5.53125 L 7.46875 -5.53125 L 10.703125 -11.0625 C 11.859375 -11.0625 12.773438 -10.984375 13.453125 -10.828125 C 13.554688 -10.804688 13.609375 -10.722656 13.609375 -10.578125 C 13.609375 -10.503906 13.535156 -10.476562 13.390625 -10.5 C 13.242188 -10.519531 13.050781 -10.53125 12.8125 -10.53125 C 12.582031 -10.53125 12.332031 -10.476562 12.0625 -10.375 L 13.34375 -1.171875 C 13.40625 -0.691406 13.550781 -0.398438 13.78125 -0.296875 C 13.84375 -0.265625 13.875 -0.207031 13.875 -0.125 C 13.875 -0.0390625 13.84375 0 13.78125 0 L 11.546875 0 C 11.484375 0 11.453125 -0.0351562 11.453125 -0.109375 C 11.453125 -0.191406 11.460938 -0.238281 11.484375 -0.25 C 11.503906 -0.269531 11.53125 -0.289062 11.5625 -0.3125 C 11.675781 -0.363281 11.773438 -0.492188 11.859375 -0.703125 C 11.953125 -0.921875 12 -1.066406 12 -1.140625 C 12 -1.222656 12 -1.273438 12 -1.296875 L 10.90625 -9.296875 L 10.875 -9.296875 L 7.546875 -3.484375 C 7.535156 -3.460938 7.453125 -3.453125 7.296875 -3.453125 C 7.148438 -3.460938 7.070312 -3.472656 7.0625 -3.484375 L 3.59375 -9.296875 L 3.53125 -9.296875 L 2.546875 -1.296875 C 2.523438 -1.148438 2.550781 -0.976562 2.625 -0.78125 C 2.707031 -0.59375 2.773438 -0.472656 2.828125 -0.421875 C 2.890625 -0.367188 2.945312 -0.328125 3 -0.296875 C 3.0625 -0.265625 3.09375 -0.207031 3.09375 -0.125 C 3.09375 -0.0390625 3.0625 0 3 0 L 0.953125 0 C 0.890625 0 0.859375 -0.0351562 0.859375 -0.109375 C 0.859375 -0.191406 0.867188 -0.238281 0.890625 -0.25 C 0.910156 -0.269531 0.941406 -0.289062 0.984375 -0.3125 C 1.191406 -0.394531 1.328125 -0.679688 1.390625 -1.171875 Z M 2.609375 -10.40625 "/></g></g></g><g fill="#ffffff" fill-opacity="1"><g transform="translate(203.99325, 353.836417)"><g><path d="M 6.796875 -6.609375 C 7.117188 -6.609375 7.390625 -6.710938 7.609375 -6.921875 C 7.617188 -6.941406 7.640625 -6.976562 7.671875 -7.03125 C 7.703125 -7.09375 7.757812 -7.125 7.84375 -7.125 C 7.925781 -7.125 7.96875 -7.097656 7.96875 -7.046875 L 7.96875 -5.09375 C 7.96875 -5.03125 7.925781 -5 7.84375 -5 C 7.769531 -5 7.722656 -5.007812 7.703125 -5.03125 C 7.691406 -5.050781 7.675781 -5.078125 7.65625 -5.109375 C 7.644531 -5.148438 7.609375 -5.195312 7.546875 -5.25 C 7.492188 -5.300781 7.390625 -5.359375 7.234375 -5.421875 C 7.085938 -5.484375 6.941406 -5.515625 6.796875 -5.515625 L 2.546875 -5.515625 L 2.546875 -1.09375 L 7.015625 -1.09375 C 7.523438 -1.09375 7.835938 -1.132812 7.953125 -1.21875 C 8.066406 -1.3125 8.144531 -1.390625 8.1875 -1.453125 C 8.238281 -1.523438 8.273438 -1.5625 8.296875 -1.5625 C 8.316406 -1.5625 8.359375 -1.546875 8.421875 -1.515625 C 8.492188 -1.492188 8.53125 -1.472656 8.53125 -1.453125 C 8.53125 -1.441406 8.5 -1.359375 8.4375 -1.203125 L 8.21875 -0.65625 C 8.132812 -0.445312 8.078125 -0.289062 8.046875 -0.1875 C 8.023438 -0.0820312 7.988281 -0.0195312 7.9375 0 L 0.796875 0 C 0.734375 0 0.703125 -0.0351562 0.703125 -0.109375 C 0.703125 -0.191406 0.710938 -0.238281 0.734375 -0.25 C 0.753906 -0.269531 0.78125 -0.285156 0.8125 -0.296875 C 0.851562 -0.316406 0.898438 -0.351562 0.953125 -0.40625 C 1.015625 -0.46875 1.078125 -0.570312 1.140625 -0.71875 C 1.203125 -0.875 1.234375 -1.023438 1.234375 -1.171875 L 1.234375 -9.859375 C 1.234375 -10.179688 1.125 -10.453125 0.90625 -10.671875 C 0.882812 -10.691406 0.84375 -10.710938 0.78125 -10.734375 C 0.726562 -10.765625 0.703125 -10.820312 0.703125 -10.90625 C 0.703125 -10.988281 0.734375 -11.03125 0.796875 -11.03125 L 7.9375 -11.03125 C 7.976562 -11.03125 8.015625 -10.972656 8.046875 -10.859375 C 8.078125 -10.742188 8.132812 -10.582031 8.21875 -10.375 L 8.4375 -9.828125 C 8.5 -9.671875 8.53125 -9.582031 8.53125 -9.5625 C 8.53125 -9.550781 8.492188 -9.535156 8.421875 -9.515625 C 8.359375 -9.492188 8.316406 -9.484375 8.296875 -9.484375 C 8.273438 -9.484375 8.253906 -9.492188 8.234375 -9.515625 C 8.210938 -9.535156 8.1875 -9.566406 8.15625 -9.609375 C 8.132812 -9.660156 8.066406 -9.726562 7.953125 -9.8125 C 7.835938 -9.894531 7.523438 -9.9375 7.015625 -9.9375 L 2.546875 -9.9375 L 2.546875 -6.609375 Z M 6.796875 -6.609375 "/></g></g></g><g fill="#ffffff" fill-opacity="1"><g transform="translate(215.112139, 353.836417)"><g/></g></g><g fill="#ffffff" fill-opacity="1"><g transform="translate(220.629734, 353.836417)"><g><path d="M 11.5 -11.03125 C 11.539062 -11.03125 11.578125 -10.972656 11.609375 -10.859375 C 11.640625 -10.742188 11.695312 -10.582031 11.78125 -10.375 C 11.78125 -10.375 11.851562 -10.191406 12 -9.828125 C 12.0625 -9.671875 12.09375 -9.582031 12.09375 -9.5625 C 12.09375 -9.550781 12.054688 -9.535156 11.984375 -9.515625 C 11.921875 -9.492188 11.882812 -9.484375 11.875 -9.484375 C 11.84375 -9.484375 11.800781 -9.515625 11.75 -9.578125 C 11.707031 -9.640625 11.628906 -9.710938 11.515625 -9.796875 C 11.398438 -9.890625 11.085938 -9.9375 10.578125 -9.9375 L 6.78125 -9.9375 L 6.78125 -1.171875 C 6.78125 -0.847656 6.890625 -0.578125 7.109375 -0.359375 C 7.128906 -0.347656 7.164062 -0.328125 7.21875 -0.296875 C 7.28125 -0.265625 7.3125 -0.207031 7.3125 -0.125 C 7.3125 -0.0390625 7.28125 0 7.21875 0 L 5.046875 0 C 4.984375 0 4.953125 -0.0351562 4.953125 -0.109375 C 4.953125 -0.191406 4.960938 -0.238281 4.984375 -0.25 C 5.003906 -0.269531 5.03125 -0.285156 5.0625 -0.296875 C 5.101562 -0.316406 5.148438 -0.351562 5.203125 -0.40625 C 5.253906 -0.46875 5.3125 -0.570312 5.375 -0.71875 C 5.445312 -0.875 5.484375 -1.023438 5.484375 -1.171875 L 5.484375 -9.9375 L 1.6875 -9.9375 C 1.050781 -9.9375 0.664062 -9.832031 0.53125 -9.625 C 0.46875 -9.53125 0.421875 -9.484375 0.390625 -9.484375 C 0.367188 -9.484375 0.328125 -9.492188 0.265625 -9.515625 C 0.203125 -9.535156 0.171875 -9.550781 0.171875 -9.5625 C 0.171875 -9.582031 0.203125 -9.671875 0.265625 -9.828125 L 0.484375 -10.375 C 0.554688 -10.582031 0.609375 -10.738281 0.640625 -10.84375 C 0.671875 -10.945312 0.710938 -11.007812 0.765625 -11.03125 Z M 11.5 -11.03125 "/></g></g></g><g fill="#ffffff" fill-opacity="1"><g transform="translate(234.953209, 353.836417)"><g><path d="M 5 -1.140625 C 5.445312 -0.960938 5.878906 -0.875 6.296875 -0.875 C 7.734375 -0.875 8.878906 -1.296875 9.734375 -2.140625 C 10.585938 -2.984375 11.015625 -4.113281 11.015625 -5.53125 C 11.015625 -6.019531 10.890625 -6.535156 10.640625 -7.078125 C 10.390625 -7.617188 10.050781 -8.113281 9.625 -8.5625 C 9.207031 -9.007812 8.695312 -9.378906 8.09375 -9.671875 C 7.488281 -9.960938 6.804688 -10.109375 6.046875 -10.109375 C 5.285156 -10.109375 4.566406 -9.914062 3.890625 -9.53125 C 3.210938 -9.144531 2.6875 -8.609375 2.3125 -7.921875 C 1.945312 -7.242188 1.765625 -6.453125 1.765625 -5.546875 C 1.765625 -4.648438 2.09375 -3.773438 2.75 -2.921875 C 3.40625 -2.078125 4.15625 -1.484375 5 -1.140625 Z M 2.171875 -1.46875 C 1.671875 -1.988281 1.269531 -2.609375 0.96875 -3.328125 C 0.675781 -4.046875 0.53125 -4.789062 0.53125 -5.5625 C 0.53125 -6.332031 0.6875 -7.066406 1 -7.765625 C 1.3125 -8.460938 1.722656 -9.066406 2.234375 -9.578125 C 2.753906 -10.085938 3.363281 -10.492188 4.0625 -10.796875 C 4.757812 -11.109375 5.453125 -11.265625 6.140625 -11.265625 C 6.828125 -11.265625 7.472656 -11.175781 8.078125 -11 C 9.253906 -10.644531 10.234375 -9.984375 11.015625 -9.015625 C 11.804688 -8.046875 12.203125 -6.90625 12.203125 -5.59375 C 12.203125 -4.832031 12.0625 -4.097656 11.78125 -3.390625 C 11.507812 -2.691406 11.125 -2.070312 10.625 -1.53125 C 10.125 -0.988281 9.488281 -0.554688 8.71875 -0.234375 C 7.957031 0.0859375 7.15625 0.25 6.3125 0.25 C 5.46875 0.25 4.691406 0.09375 3.984375 -0.21875 C 3.285156 -0.53125 2.679688 -0.945312 2.171875 -1.46875 Z M 2.171875 -1.46875 "/></g></g></g><g fill="#ffffff" fill-opacity="1"><g transform="translate(249.761412, 353.836417)"><g/></g></g><g fill="#ffffff" fill-opacity="1"><g transform="translate(255.279007, 353.836417)"><g><path d="M 0.859375 -11.03125 L 3.046875 -11.03125 C 3.097656 -11.03125 3.125 -10.988281 3.125 -10.90625 C 3.125 -10.832031 3.113281 -10.785156 3.09375 -10.765625 C 3.082031 -10.753906 3.054688 -10.738281 3.015625 -10.71875 C 2.984375 -10.707031 2.9375 -10.671875 2.875 -10.609375 C 2.820312 -10.554688 2.765625 -10.453125 2.703125 -10.296875 C 2.640625 -10.148438 2.609375 -10.003906 2.609375 -9.859375 L 2.609375 -6.796875 L 10.25 -6.796875 L 10.25 -9.859375 C 10.25 -10.179688 10.140625 -10.453125 9.921875 -10.671875 C 9.898438 -10.691406 9.859375 -10.710938 9.796875 -10.734375 C 9.742188 -10.765625 9.71875 -10.820312 9.71875 -10.90625 C 9.71875 -10.988281 9.75 -11.03125 9.8125 -11.03125 L 11.984375 -11.03125 C 12.046875 -11.03125 12.078125 -10.988281 12.078125 -10.90625 C 12.078125 -10.832031 12.066406 -10.785156 12.046875 -10.765625 C 12.023438 -10.753906 11.992188 -10.738281 11.953125 -10.71875 C 11.921875 -10.707031 11.875 -10.671875 11.8125 -10.609375 C 11.757812 -10.554688 11.703125 -10.453125 11.640625 -10.296875 C 11.578125 -10.148438 11.546875 -10.003906 11.546875 -9.859375 L 11.546875 -1.171875 C 11.546875 -0.847656 11.65625 -0.578125 11.875 -0.359375 C 11.894531 -0.347656 11.929688 -0.328125 11.984375 -0.296875 C 12.046875 -0.265625 12.078125 -0.207031 12.078125 -0.125 C 12.078125 -0.0390625 12.046875 0 11.984375 0 L 9.8125 0 C 9.75 0 9.71875 -0.0351562 9.71875 -0.109375 C 9.71875 -0.191406 9.726562 -0.238281 9.75 -0.25 C 9.769531 -0.269531 9.796875 -0.285156 9.828125 -0.296875 C 9.867188 -0.316406 9.914062 -0.351562 9.96875 -0.40625 C 10.03125 -0.46875 10.09375 -0.570312 10.15625 -0.71875 C 10.21875 -0.875 10.25 -1.023438 10.25 -1.171875 L 10.25 -5.671875 L 2.609375 -5.671875 L 2.609375 -1.171875 C 2.609375 -0.847656 2.71875 -0.578125 2.9375 -0.359375 C 2.945312 -0.347656 2.976562 -0.328125 3.03125 -0.296875 C 3.09375 -0.265625 3.125 -0.207031 3.125 -0.125 C 3.125 -0.0390625 3.097656 0 3.046875 0 L 0.859375 0 C 0.804688 0 0.78125 -0.0351562 0.78125 -0.109375 C 0.78125 -0.191406 0.785156 -0.238281 0.796875 -0.25 C 0.816406 -0.269531 0.84375 -0.285156 0.875 -0.296875 C 0.914062 -0.316406 0.960938 -0.351562 1.015625 -0.40625 C 1.078125 -0.46875 1.140625 -0.570312 1.203125 -0.71875 C 1.265625 -0.875 1.296875 -1.023438 1.296875 -1.171875 L 1.296875 -9.859375 C 1.296875 -10.179688 1.191406 -10.453125 0.984375 -10.671875 C 0.960938 -10.691406 0.921875 -10.710938 0.859375 -10.734375 C 0.804688 -10.765625 0.78125 -10.820312 0.78125 -10.90625 C 0.78125 -10.988281 0.804688 -11.03125 0.859375 -11.03125 Z M 0.859375 -11.03125 "/></g></g></g><g fill="#ffffff" fill-opacity="1"><g transform="translate(270.329573, 353.836417)"><g><path d="M 5 -1.140625 C 5.445312 -0.960938 5.878906 -0.875 6.296875 -0.875 C 7.734375 -0.875 8.878906 -1.296875 9.734375 -2.140625 C 10.585938 -2.984375 11.015625 -4.113281 11.015625 -5.53125 C 11.015625 -6.019531 10.890625 -6.535156 10.640625 -7.078125 C 10.390625 -7.617188 10.050781 -8.113281 9.625 -8.5625 C 9.207031 -9.007812 8.695312 -9.378906 8.09375 -9.671875 C 7.488281 -9.960938 6.804688 -10.109375 6.046875 -10.109375 C 5.285156 -10.109375 4.566406 -9.914062 3.890625 -9.53125 C 3.210938 -9.144531 2.6875 -8.609375 2.3125 -7.921875 C 1.945312 -7.242188 1.765625 -6.453125 1.765625 -5.546875 C 1.765625 -4.648438 2.09375 -3.773438 2.75 -2.921875 C 3.40625 -2.078125 4.15625 -1.484375 5 -1.140625 Z M 2.171875 -1.46875 C 1.671875 -1.988281 1.269531 -2.609375 0.96875 -3.328125 C 0.675781 -4.046875 0.53125 -4.789062 0.53125 -5.5625 C 0.53125 -6.332031 0.6875 -7.066406 1 -7.765625 C 1.3125 -8.460938 1.722656 -9.066406 2.234375 -9.578125 C 2.753906 -10.085938 3.363281 -10.492188 4.0625 -10.796875 C 4.757812 -11.109375 5.453125 -11.265625 6.140625 -11.265625 C 6.828125 -11.265625 7.472656 -11.175781 8.078125 -11 C 9.253906 -10.644531 10.234375 -9.984375 11.015625 -9.015625 C 11.804688 -8.046875 12.203125 -6.90625 12.203125 -5.59375 C 12.203125 -4.832031 12.0625 -4.097656 11.78125 -3.390625 C 11.507812 -2.691406 11.125 -2.070312 10.625 -1.53125 C 10.125 -0.988281 9.488281 -0.554688 8.71875 -0.234375 C 7.957031 0.0859375 7.15625 0.25 6.3125 0.25 C 5.46875 0.25 4.691406 0.09375 3.984375 -0.21875 C 3.285156 -0.53125 2.679688 -0.945312 2.171875 -1.46875 Z M 2.171875 -1.46875 "/></g></g></g><g fill="#ffffff" fill-opacity="1"><g transform="translate(285.137775, 353.836417)"><g><path d="M 2.609375 -10.40625 C 2.328125 -10.5 2.101562 -10.546875 1.9375 -10.546875 C 1.695312 -10.546875 1.503906 -10.53125 1.359375 -10.5 C 1.210938 -10.476562 1.132812 -10.476562 1.125 -10.5 C 1.113281 -10.519531 1.109375 -10.550781 1.109375 -10.59375 C 1.109375 -10.644531 1.125 -10.691406 1.15625 -10.734375 C 1.1875 -10.785156 1.222656 -10.816406 1.265625 -10.828125 C 1.929688 -10.984375 2.847656 -11.0625 4.015625 -11.0625 L 7.390625 -5.53125 L 7.46875 -5.53125 L 10.703125 -11.0625 C 11.859375 -11.0625 12.773438 -10.984375 13.453125 -10.828125 C 13.554688 -10.804688 13.609375 -10.722656 13.609375 -10.578125 C 13.609375 -10.503906 13.535156 -10.476562 13.390625 -10.5 C 13.242188 -10.519531 13.050781 -10.53125 12.8125 -10.53125 C 12.582031 -10.53125 12.332031 -10.476562 12.0625 -10.375 L 13.34375 -1.171875 C 13.40625 -0.691406 13.550781 -0.398438 13.78125 -0.296875 C 13.84375 -0.265625 13.875 -0.207031 13.875 -0.125 C 13.875 -0.0390625 13.84375 0 13.78125 0 L 11.546875 0 C 11.484375 0 11.453125 -0.0351562 11.453125 -0.109375 C 11.453125 -0.191406 11.460938 -0.238281 11.484375 -0.25 C 11.503906 -0.269531 11.53125 -0.289062 11.5625 -0.3125 C 11.675781 -0.363281 11.773438 -0.492188 11.859375 -0.703125 C 11.953125 -0.921875 12 -1.066406 12 -1.140625 C 12 -1.222656 12 -1.273438 12 -1.296875 L 10.90625 -9.296875 L 10.875 -9.296875 L 7.546875 -3.484375 C 7.535156 -3.460938 7.453125 -3.453125 7.296875 -3.453125 C 7.148438 -3.460938 7.070312 -3.472656 7.0625 -3.484375 L 3.59375 -9.296875 L 3.53125 -9.296875 L 2.546875 -1.296875 C 2.523438 -1.148438 2.550781 -0.976562 2.625 -0.78125 C 2.707031 -0.59375 2.773438 -0.472656 2.828125 -0.421875 C 2.890625 -0.367188 2.945312 -0.328125 3 -0.296875 C 3.0625 -0.265625 3.09375 -0.207031 3.09375 -0.125 C 3.09375 -0.0390625 3.0625 0 3 0 L 0.953125 0 C 0.890625 0 0.859375 -0.0351562 0.859375 -0.109375 C 0.859375 -0.191406 0.867188 -0.238281 0.890625 -0.25 C 0.910156 -0.269531 0.941406 -0.289062 0.984375 -0.3125 C 1.191406 -0.394531 1.328125 -0.679688 1.390625 -1.171875 Z M 2.609375 -10.40625 "/></g></g></g><g fill="#ffffff" fill-opacity="1"><g transform="translate(301.97914, 353.836417)"><g><path d="M 6.796875 -6.609375 C 7.117188 -6.609375 7.390625 -6.710938 7.609375 -6.921875 C 7.617188 -6.941406 7.640625 -6.976562 7.671875 -7.03125 C 7.703125 -7.09375 7.757812 -7.125 7.84375 -7.125 C 7.925781 -7.125 7.96875 -7.097656 7.96875 -7.046875 L 7.96875 -5.09375 C 7.96875 -5.03125 7.925781 -5 7.84375 -5 C 7.769531 -5 7.722656 -5.007812 7.703125 -5.03125 C 7.691406 -5.050781 7.675781 -5.078125 7.65625 -5.109375 C 7.644531 -5.148438 7.609375 -5.195312 7.546875 -5.25 C 7.492188 -5.300781 7.390625 -5.359375 7.234375 -5.421875 C 7.085938 -5.484375 6.941406 -5.515625 6.796875 -5.515625 L 2.546875 -5.515625 L 2.546875 -1.09375 L 7.015625 -1.09375 C 7.523438 -1.09375 7.835938 -1.132812 7.953125 -1.21875 C 8.066406 -1.3125 8.144531 -1.390625 8.1875 -1.453125 C 8.238281 -1.523438 8.273438 -1.5625 8.296875 -1.5625 C 8.316406 -1.5625 8.359375 -1.546875 8.421875 -1.515625 C 8.492188 -1.492188 8.53125 -1.472656 8.53125 -1.453125 C 8.53125 -1.441406 8.5 -1.359375 8.4375 -1.203125 L 8.21875 -0.65625 C 8.132812 -0.445312 8.078125 -0.289062 8.046875 -0.1875 C 8.023438 -0.0820312 7.988281 -0.0195312 7.9375 0 L 0.796875 0 C 0.734375 0 0.703125 -0.0351562 0.703125 -0.109375 C 0.703125 -0.191406 0.710938 -0.238281 0.734375 -0.25 C 0.753906 -0.269531 0.78125 -0.285156 0.8125 -0.296875 C 0.851562 -0.316406 0.898438 -0.351562 0.953125 -0.40625 C 1.015625 -0.46875 1.078125 -0.570312 1.140625 -0.71875 C 1.203125 -0.875 1.234375 -1.023438 1.234375 -1.171875 L 1.234375 -9.859375 C 1.234375 -10.179688 1.125 -10.453125 0.90625 -10.671875 C 0.882812 -10.691406 0.84375 -10.710938 0.78125 -10.734375 C 0.726562 -10.765625 0.703125 -10.820312 0.703125 -10.90625 C 0.703125 -10.988281 0.734375 -11.03125 0.796875 -11.03125 L 7.9375 -11.03125 C 7.976562 -11.03125 8.015625 -10.972656 8.046875 -10.859375 C 8.078125 -10.742188 8.132812 -10.582031 8.21875 -10.375 L 8.4375 -9.828125 C 8.5 -9.671875 8.53125 -9.582031 8.53125 -9.5625 C 8.53125 -9.550781 8.492188 -9.535156 8.421875 -9.515625 C 8.359375 -9.492188 8.316406 -9.484375 8.296875 -9.484375 C 8.273438 -9.484375 8.253906 -9.492188 8.234375 -9.515625 C 8.210938 -9.535156 8.1875 -9.566406 8.15625 -9.609375 C 8.132812 -9.660156 8.066406 -9.726562 7.953125 -9.8125 C 7.835938 -9.894531 7.523438 -9.9375 7.015625 -9.9375 L 2.546875 -9.9375 L 2.546875 -6.609375 Z M 6.796875 -6.609375 "/></g></g></g><g fill="#ffffff" fill-opacity="1"><g transform="translate(313.098029, 353.836417)"><g/></g></g><g fill="#ffffff" fill-opacity="1"><g transform="translate(318.615624, 353.836417)"><g><path d="M 5 -1.140625 C 5.445312 -0.960938 5.878906 -0.875 6.296875 -0.875 C 7.734375 -0.875 8.878906 -1.296875 9.734375 -2.140625 C 10.585938 -2.984375 11.015625 -4.113281 11.015625 -5.53125 C 11.015625 -6.019531 10.890625 -6.535156 10.640625 -7.078125 C 10.390625 -7.617188 10.050781 -8.113281 9.625 -8.5625 C 9.207031 -9.007812 8.695312 -9.378906 8.09375 -9.671875 C 7.488281 -9.960938 6.804688 -10.109375 6.046875 -10.109375 C 5.285156 -10.109375 4.566406 -9.914062 3.890625 -9.53125 C 3.210938 -9.144531 2.6875 -8.609375 2.3125 -7.921875 C 1.945312 -7.242188 1.765625 -6.453125 1.765625 -5.546875 C 1.765625 -4.648438 2.09375 -3.773438 2.75 -2.921875 C 3.40625 -2.078125 4.15625 -1.484375 5 -1.140625 Z M 2.171875 -1.46875 C 1.671875 -1.988281 1.269531 -2.609375 0.96875 -3.328125 C 0.675781 -4.046875 0.53125 -4.789062 0.53125 -5.5625 C 0.53125 -6.332031 0.6875 -7.066406 1 -7.765625 C 1.3125 -8.460938 1.722656 -9.066406 2.234375 -9.578125 C 2.753906 -10.085938 3.363281 -10.492188 4.0625 -10.796875 C 4.757812 -11.109375 5.453125 -11.265625 6.140625 -11.265625 C 6.828125 -11.265625 7.472656 -11.175781 8.078125 -11 C 9.253906 -10.644531 10.234375 -9.984375 11.015625 -9.015625 C 11.804688 -8.046875 12.203125 -6.90625 12.203125 -5.59375 C 12.203125 -4.832031 12.0625 -4.097656 11.78125 -3.390625 C 11.507812 -2.691406 11.125 -2.070312 10.625 -1.53125 C 10.125 -0.988281 9.488281 -0.554688 8.71875 -0.234375 C 7.957031 0.0859375 7.15625 0.25 6.3125 0.25 C 5.46875 0.25 4.691406 0.09375 3.984375 -0.21875 C 3.285156 -0.53125 2.679688 -0.945312 2.171875 -1.46875 Z M 2.171875 -1.46875 "/></g></g></g><g fill="#ffffff" fill-opacity="1"><g transform="translate(333.423826, 353.836417)"><g><path d="M 0.859375 0 C 0.804688 0 0.78125 -0.0351562 0.78125 -0.109375 C 0.78125 -0.191406 0.785156 -0.238281 0.796875 -0.25 C 0.816406 -0.269531 0.84375 -0.285156 0.875 -0.296875 C 0.914062 -0.316406 0.960938 -0.351562 1.015625 -0.40625 C 1.078125 -0.46875 1.140625 -0.570312 1.203125 -0.71875 C 1.265625 -0.875 1.296875 -1.023438 1.296875 -1.171875 L 1.296875 -9.859375 C 1.296875 -10.179688 1.191406 -10.453125 0.984375 -10.671875 C 0.960938 -10.691406 0.921875 -10.710938 0.859375 -10.734375 C 0.804688 -10.765625 0.78125 -10.820312 0.78125 -10.90625 C 0.78125 -10.988281 0.804688 -11.03125 0.859375 -11.03125 L 8 -11.03125 C 8.050781 -11.03125 8.09375 -10.972656 8.125 -10.859375 C 8.15625 -10.742188 8.207031 -10.582031 8.28125 -10.375 L 8.5 -9.828125 C 8.5625 -9.671875 8.59375 -9.582031 8.59375 -9.5625 C 8.59375 -9.550781 8.5625 -9.535156 8.5 -9.515625 C 8.4375 -9.492188 8.390625 -9.484375 8.359375 -9.484375 C 8.328125 -9.484375 8.289062 -9.515625 8.25 -9.578125 C 8.207031 -9.640625 8.128906 -9.710938 8.015625 -9.796875 C 7.898438 -9.890625 7.585938 -9.9375 7.078125 -9.9375 L 2.609375 -9.9375 L 2.609375 -6.609375 L 6.859375 -6.609375 C 7.179688 -6.609375 7.453125 -6.710938 7.671875 -6.921875 C 7.691406 -6.941406 7.710938 -6.976562 7.734375 -7.03125 C 7.765625 -7.09375 7.820312 -7.125 7.90625 -7.125 C 7.988281 -7.125 8.03125 -7.097656 8.03125 -7.046875 L 8.03125 -5.09375 C 8.03125 -5.03125 7.988281 -5 7.90625 -5 C 7.832031 -5 7.785156 -5.007812 7.765625 -5.03125 C 7.753906 -5.050781 7.738281 -5.078125 7.71875 -5.109375 C 7.707031 -5.148438 7.671875 -5.195312 7.609375 -5.25 C 7.554688 -5.300781 7.457031 -5.359375 7.3125 -5.421875 C 7.164062 -5.484375 7.015625 -5.515625 6.859375 -5.515625 L 2.609375 -5.515625 L 2.609375 -1.171875 C 2.609375 -0.847656 2.71875 -0.578125 2.9375 -0.359375 C 2.945312 -0.347656 2.976562 -0.328125 3.03125 -0.296875 C 3.09375 -0.265625 3.125 -0.207031 3.125 -0.125 C 3.125 -0.0390625 3.097656 0 3.046875 0 Z M 0.859375 0 "/></g></g></g><g fill="#ffffff" fill-opacity="1"><g transform="translate(344.542715, 353.836417)"><g/></g></g><g fill="#ffffff" fill-opacity="1"><g transform="translate(350.060311, 353.836417)"><g><path d="M 11.5 -11.03125 C 11.539062 -11.03125 11.578125 -10.972656 11.609375 -10.859375 C 11.640625 -10.742188 11.695312 -10.582031 11.78125 -10.375 C 11.78125 -10.375 11.851562 -10.191406 12 -9.828125 C 12.0625 -9.671875 12.09375 -9.582031 12.09375 -9.5625 C 12.09375 -9.550781 12.054688 -9.535156 11.984375 -9.515625 C 11.921875 -9.492188 11.882812 -9.484375 11.875 -9.484375 C 11.84375 -9.484375 11.800781 -9.515625 11.75 -9.578125 C 11.707031 -9.640625 11.628906 -9.710938 11.515625 -9.796875 C 11.398438 -9.890625 11.085938 -9.9375 10.578125 -9.9375 L 6.78125 -9.9375 L 6.78125 -1.171875 C 6.78125 -0.847656 6.890625 -0.578125 7.109375 -0.359375 C 7.128906 -0.347656 7.164062 -0.328125 7.21875 -0.296875 C 7.28125 -0.265625 7.3125 -0.207031 7.3125 -0.125 C 7.3125 -0.0390625 7.28125 0 7.21875 0 L 5.046875 0 C 4.984375 0 4.953125 -0.0351562 4.953125 -0.109375 C 4.953125 -0.191406 4.960938 -0.238281 4.984375 -0.25 C 5.003906 -0.269531 5.03125 -0.285156 5.0625 -0.296875 C 5.101562 -0.316406 5.148438 -0.351562 5.203125 -0.40625 C 5.253906 -0.46875 5.3125 -0.570312 5.375 -0.71875 C 5.445312 -0.875 5.484375 -1.023438 5.484375 -1.171875 L 5.484375 -9.9375 L 1.6875 -9.9375 C 1.050781 -9.9375 0.664062 -9.832031 0.53125 -9.625 C 0.46875 -9.53125 0.421875 -9.484375 0.390625 -9.484375 C 0.367188 -9.484375 0.328125 -9.492188 0.265625 -9.515625 C 0.203125 -9.535156 0.171875 -9.550781 0.171875 -9.5625 C 0.171875 -9.582031 0.203125 -9.671875 0.265625 -9.828125 L 0.484375 -10.375 C 0.554688 -10.582031 0.609375 -10.738281 0.640625 -10.84375 C 0.671875 -10.945312 0.710938 -11.007812 0.765625 -11.03125 Z M 11.5 -11.03125 "/></g></g></g><g fill="#ffffff" fill-opacity="1"><g transform="translate(364.383786, 353.836417)"><g><path d="M 0.78125 -1.03125 C 0.78125 -1.03125 2.253906 -4.335938 5.203125 -10.953125 C 5.222656 -11.003906 5.332031 -11.03125 5.53125 -11.03125 C 5.726562 -11.03125 5.84375 -11.003906 5.875 -10.953125 L 10.4375 -1.03125 C 10.613281 -0.625 10.785156 -0.378906 10.953125 -0.296875 C 11.015625 -0.265625 11.046875 -0.207031 11.046875 -0.125 C 11.046875 -0.0390625 11.015625 0 10.953125 0 L 8.515625 0 C 8.460938 0 8.4375 -0.0351562 8.4375 -0.109375 C 8.4375 -0.191406 8.445312 -0.238281 8.46875 -0.25 C 8.488281 -0.269531 8.515625 -0.285156 8.546875 -0.296875 C 8.585938 -0.316406 8.617188 -0.335938 8.640625 -0.359375 C 8.804688 -0.535156 8.890625 -0.695312 8.890625 -0.84375 C 8.890625 -0.988281 8.875 -1.109375 8.84375 -1.203125 L 7.875 -3.515625 L 3.015625 -3.515625 L 2.0625 -1.203125 C 2.019531 -1.109375 2 -1.035156 2 -0.984375 L 2 -0.90625 C 2 -0.90625 2 -0.898438 2 -0.890625 C 2 -0.710938 2.085938 -0.535156 2.265625 -0.359375 C 2.285156 -0.347656 2.320312 -0.328125 2.375 -0.296875 C 2.4375 -0.265625 2.46875 -0.207031 2.46875 -0.125 C 2.46875 -0.0390625 2.4375 0 2.375 0 L 0.25 0 C 0.195312 0 0.171875 -0.0351562 0.171875 -0.109375 C 0.171875 -0.191406 0.179688 -0.238281 0.203125 -0.25 C 0.222656 -0.269531 0.25 -0.289062 0.28125 -0.3125 C 0.425781 -0.375 0.59375 -0.613281 0.78125 -1.03125 Z M 3.484375 -4.578125 C 3.472656 -4.566406 3.46875 -4.550781 3.46875 -4.53125 C 3.476562 -4.507812 3.492188 -4.5 3.515625 -4.5 L 7.359375 -4.5 C 7.367188 -4.5 7.375 -4.507812 7.375 -4.53125 C 7.382812 -4.550781 7.382812 -4.566406 7.375 -4.578125 L 5.4375 -8.8125 L 5.375 -8.8125 Z M 3.484375 -4.578125 "/></g></g></g><g fill="#ffffff" fill-opacity="1"><g transform="translate(377.663751, 353.836417)"><g><path d="M 2.328125 -0.078125 C 2.203125 -0.109375 2.054688 -0.148438 1.890625 -0.203125 C 1.722656 -0.253906 1.617188 -0.28125 1.578125 -0.28125 L 1.5 -0.28125 C 1.34375 -0.28125 1.222656 -0.191406 1.140625 -0.015625 C 1.128906 -0.00390625 1.125 0 1.125 0 L 0.921875 0 C 0.898438 0 0.882812 -0.0078125 0.875 -0.03125 L 0.296875 -2.015625 C 0.273438 -2.109375 0.34375 -2.15625 0.5 -2.15625 C 0.5625 -2.15625 0.601562 -2.144531 0.625 -2.125 C 0.65625 -2.101562 0.671875 -2.085938 0.671875 -2.078125 C 0.679688 -2.066406 0.703125 -2.035156 0.734375 -1.984375 C 1.328125 -1.242188 2.195312 -0.875 3.34375 -0.875 C 3.945312 -0.875 4.445312 -1.03125 4.84375 -1.34375 C 5.238281 -1.664062 5.4375 -2.132812 5.4375 -2.75 C 5.4375 -3.164062 5.367188 -3.472656 5.234375 -3.671875 C 5.109375 -3.878906 5.003906 -4.035156 4.921875 -4.140625 C 4.734375 -4.359375 4.300781 -4.660156 3.625 -5.046875 C 2.945312 -5.429688 2.394531 -5.78125 1.96875 -6.09375 C 0.894531 -6.863281 0.359375 -7.660156 0.359375 -8.484375 C 0.359375 -9.304688 0.613281 -9.941406 1.125 -10.390625 C 1.632812 -10.835938 2.316406 -11.0625 3.171875 -11.0625 C 3.648438 -11.0625 4.148438 -10.9375 4.671875 -10.6875 C 4.929688 -10.5625 5.117188 -10.476562 5.234375 -10.4375 C 5.347656 -10.394531 5.425781 -10.414062 5.46875 -10.5 C 5.519531 -10.59375 5.550781 -10.640625 5.5625 -10.640625 C 5.757812 -10.660156 5.859375 -10.628906 5.859375 -10.546875 L 6.0625 -8.390625 C 6.0625 -8.347656 5.957031 -8.328125 5.75 -8.328125 C 5.71875 -8.328125 5.691406 -8.367188 5.671875 -8.453125 C 5.535156 -8.910156 5.207031 -9.289062 4.6875 -9.59375 C 4.175781 -9.894531 3.664062 -10.046875 3.15625 -10.046875 C 2.070312 -10.046875 1.53125 -9.597656 1.53125 -8.703125 C 1.53125 -8.046875 2.117188 -7.394531 3.296875 -6.75 L 4.578125 -6.0625 C 5.359375 -5.625 5.90625 -5.148438 6.21875 -4.640625 C 6.539062 -4.140625 6.703125 -3.601562 6.703125 -3.03125 L 6.703125 -2.96875 C 6.585938 -2.195312 6.453125 -1.671875 6.296875 -1.390625 C 6.035156 -0.929688 5.664062 -0.5625 5.1875 -0.28125 C 4.707031 -0.0078125 4.160156 0.125 3.546875 0.125 C 3.210938 0.113281 2.9375 0.0820312 2.71875 0.03125 Z M 2.328125 -0.078125 "/></g></g></g><g fill="#ffffff" fill-opacity="1"><g transform="translate(386.688887, 353.836417)"><g><path d="M 11.5 -11.03125 C 11.539062 -11.03125 11.578125 -10.972656 11.609375 -10.859375 C 11.640625 -10.742188 11.695312 -10.582031 11.78125 -10.375 C 11.78125 -10.375 11.851562 -10.191406 12 -9.828125 C 12.0625 -9.671875 12.09375 -9.582031 12.09375 -9.5625 C 12.09375 -9.550781 12.054688 -9.535156 11.984375 -9.515625 C 11.921875 -9.492188 11.882812 -9.484375 11.875 -9.484375 C 11.84375 -9.484375 11.800781 -9.515625 11.75 -9.578125 C 11.707031 -9.640625 11.628906 -9.710938 11.515625 -9.796875 C 11.398438 -9.890625 11.085938 -9.9375 10.578125 -9.9375 L 6.78125 -9.9375 L 6.78125 -1.171875 C 6.78125 -0.847656 6.890625 -0.578125 7.109375 -0.359375 C 7.128906 -0.347656 7.164062 -0.328125 7.21875 -0.296875 C 7.28125 -0.265625 7.3125 -0.207031 7.3125 -0.125 C 7.3125 -0.0390625 7.28125 0 7.21875 0 L 5.046875 0 C 4.984375 0 4.953125 -0.0351562 4.953125 -0.109375 C 4.953125 -0.191406 4.960938 -0.238281 4.984375 -0.25 C 5.003906 -0.269531 5.03125 -0.285156 5.0625 -0.296875 C 5.101562 -0.316406 5.148438 -0.351562 5.203125 -0.40625 C 5.253906 -0.46875 5.3125 -0.570312 5.375 -0.71875 C 5.445312 -0.875 5.484375 -1.023438 5.484375 -1.171875 L 5.484375 -9.9375 L 1.6875 -9.9375 C 1.050781 -9.9375 0.664062 -9.832031 0.53125 -9.625 C 0.46875 -9.53125 0.421875 -9.484375 0.390625 -9.484375 C 0.367188 -9.484375 0.328125 -9.492188 0.265625 -9.515625 C 0.203125 -9.535156 0.171875 -9.550781 0.171875 -9.5625 C 0.171875 -9.582031 0.203125 -9.671875 0.265625 -9.828125 L 0.484375 -10.375 C 0.554688 -10.582031 0.609375 -10.738281 0.640625 -10.84375 C 0.671875 -10.945312 0.710938 -11.007812 0.765625 -11.03125 Z M 11.5 -11.03125 "/></g></g></g><g fill="#ffffff" fill-opacity="1"><g transform="translate(401.012362, 353.836417)"><g><path d="M 6.796875 -6.609375 C 7.117188 -6.609375 7.390625 -6.710938 7.609375 -6.921875 C 7.617188 -6.941406 7.640625 -6.976562 7.671875 -7.03125 C 7.703125 -7.09375 7.757812 -7.125 7.84375 -7.125 C 7.925781 -7.125 7.96875 -7.097656 7.96875 -7.046875 L 7.96875 -5.09375 C 7.96875 -5.03125 7.925781 -5 7.84375 -5 C 7.769531 -5 7.722656 -5.007812 7.703125 -5.03125 C 7.691406 -5.050781 7.675781 -5.078125 7.65625 -5.109375 C 7.644531 -5.148438 7.609375 -5.195312 7.546875 -5.25 C 7.492188 -5.300781 7.390625 -5.359375 7.234375 -5.421875 C 7.085938 -5.484375 6.941406 -5.515625 6.796875 -5.515625 L 2.546875 -5.515625 L 2.546875 -1.09375 L 7.015625 -1.09375 C 7.523438 -1.09375 7.835938 -1.132812 7.953125 -1.21875 C 8.066406 -1.3125 8.144531 -1.390625 8.1875 -1.453125 C 8.238281 -1.523438 8.273438 -1.5625 8.296875 -1.5625 C 8.316406 -1.5625 8.359375 -1.546875 8.421875 -1.515625 C 8.492188 -1.492188 8.53125 -1.472656 8.53125 -1.453125 C 8.53125 -1.441406 8.5 -1.359375 8.4375 -1.203125 L 8.21875 -0.65625 C 8.132812 -0.445312 8.078125 -0.289062 8.046875 -0.1875 C 8.023438 -0.0820312 7.988281 -0.0195312 7.9375 0 L 0.796875 0 C 0.734375 0 0.703125 -0.0351562 0.703125 -0.109375 C 0.703125 -0.191406 0.710938 -0.238281 0.734375 -0.25 C 0.753906 -0.269531 0.78125 -0.285156 0.8125 -0.296875 C 0.851562 -0.316406 0.898438 -0.351562 0.953125 -0.40625 C 1.015625 -0.46875 1.078125 -0.570312 1.140625 -0.71875 C 1.203125 -0.875 1.234375 -1.023438 1.234375 -1.171875 L 1.234375 -9.859375 C 1.234375 -10.179688 1.125 -10.453125 0.90625 -10.671875 C 0.882812 -10.691406 0.84375 -10.710938 0.78125 -10.734375 C 0.726562 -10.765625 0.703125 -10.820312 0.703125 -10.90625 C 0.703125 -10.988281 0.734375 -11.03125 0.796875 -11.03125 L 7.9375 -11.03125 C 7.976562 -11.03125 8.015625 -10.972656 8.046875 -10.859375 C 8.078125 -10.742188 8.132812 -10.582031 8.21875 -10.375 L 8.4375 -9.828125 C 8.5 -9.671875 8.53125 -9.582031 8.53125 -9.5625 C 8.53125 -9.550781 8.492188 -9.535156 8.421875 -9.515625 C 8.359375 -9.492188 8.316406 -9.484375 8.296875 -9.484375 C 8.273438 -9.484375 8.253906 -9.492188 8.234375 -9.515625 C 8.210938 -9.535156 8.1875 -9.566406 8.15625 -9.609375 C 8.132812 -9.660156 8.066406 -9.726562 7.953125 -9.8125 C 7.835938 -9.894531 7.523438 -9.9375 7.015625 -9.9375 L 2.546875 -9.9375 L 2.546875 -6.609375 Z M 6.796875 -6.609375 "/></g></g></g></svg>